<svg width="2603" height="516" viewBox="0 0 2603 516" fill="none" xmlns="http://www.w3.org/2000/svg">
<path d="M626.929 100.421L565.627 329.896C564.578 333.567 562.093 335.396 558.164 335.396H408.467C404.538 335.396 403.095 333.567 404.144 329.896L465.442 100.421C466.75 96.7548 469.235 94.9193 472.91 94.9193H622.607C626.269 94.9193 627.712 96.7548 626.929 100.421ZM730.272 20.4583C719.524 7.23258 704.337 0.614685 684.692 0.614685H461.513C441.337 0.614685 422.347 7.23258 404.538 20.4583C386.721 33.6881 375.459 49.6035 370.746 68.1995L299.595 335.396H119.328C115.399 335.396 113.956 333.567 115.006 329.896L176.306 100.421C177.613 96.7548 180.099 94.9193 183.771 94.9193H309.112L334.261 0.614685H172.376C152.201 0.614685 133.211 7.23258 115.399 20.4583C97.5825 33.6881 86.3229 49.6035 81.6073 68.1995L3.02095 362.116C-1.69458 380.978 1.12259 396.958 11.4694 410.056C21.8193 423.157 37.0709 429.702 57.2455 429.702H274.482L254.445 504.953H357.7L377.423 429.702H569.95C589.596 429.702 608.324 423.157 626.142 410.056C643.955 396.958 655.348 380.978 660.328 362.116L738.912 68.1995C743.887 49.6035 741.008 33.6881 730.272 20.4583Z" fill="#E1C66F"/>
<path d="M570.033 429.426H377.505L404.128 329.984C403.276 333.412 404.753 335.12 408.549 335.12H660.362V361.839C655.383 380.701 644.036 396.683 626.224 409.779C608.406 422.879 589.678 429.426 570.033 429.426Z" fill="url(#paint0_linear)"/>
<path d="M3.02074 361.839L10.1801 335.064C10.1801 335.064 115.399 335.12 119.329 335.12H299.595L274.482 429.426H57.2453C37.0707 429.426 21.8191 422.879 11.4692 409.778C1.1234 396.682 -1.69479 380.701 3.02074 361.839Z" fill="url(#paint1_linear)"/>
<path d="M993.574 307.518V458.484H963.837V360.291L924.116 458.484H901.601L861.668 360.291V458.484H831.931V307.518H865.704L912.859 419.769L960.013 307.518H993.574Z" fill="#DBC273"/>
<path d="M1075.23 460.431C1063.9 460.431 1053.7 457.907 1044.64 452.861C1035.58 447.67 1028.43 440.388 1023.19 431.016C1018.09 421.644 1015.54 410.829 1015.54 398.573C1015.54 386.317 1018.16 375.503 1023.4 366.131C1028.78 356.759 1036.07 349.549 1045.28 344.502C1054.48 339.312 1064.75 336.716 1076.08 336.716C1087.4 336.716 1097.67 339.312 1106.88 344.502C1116.08 349.549 1123.3 356.759 1128.54 366.131C1133.92 375.503 1136.61 386.317 1136.61 398.573C1136.61 410.829 1133.85 421.644 1128.33 431.016C1122.95 440.388 1115.58 447.67 1106.24 452.861C1097.03 457.907 1086.7 460.431 1075.23 460.431ZM1075.23 434.044C1080.61 434.044 1085.63 432.746 1090.31 430.151C1095.12 427.411 1098.95 423.374 1101.78 418.039C1104.61 412.704 1106.03 406.215 1106.03 398.573C1106.03 387.182 1103.05 378.459 1097.1 372.403C1091.3 366.203 1084.15 363.103 1075.65 363.103C1067.16 363.103 1060 366.203 1054.2 372.403C1048.53 378.459 1045.7 387.182 1045.7 398.573C1045.7 409.964 1048.46 418.76 1053.99 424.96C1059.65 431.016 1066.73 434.044 1075.23 434.044Z" fill="#DBC273"/>
<path d="M1223.64 336.932C1237.65 336.932 1248.98 341.474 1257.62 350.558C1266.26 359.498 1270.58 372.043 1270.58 388.192V458.484H1240.84V392.301C1240.84 382.785 1238.5 375.503 1233.83 370.456C1229.16 365.266 1222.79 362.67 1214.71 362.67C1206.5 362.67 1199.99 365.266 1195.17 370.456C1190.5 375.503 1188.16 382.785 1188.16 392.301V458.484H1158.43V338.663H1188.16V353.586C1192.13 348.396 1197.16 344.358 1203.24 341.474C1209.47 338.446 1216.27 336.932 1223.64 336.932Z" fill="#DBC273"/>
<path d="M1408.25 395.978C1408.25 400.304 1407.96 404.197 1407.4 407.657H1321.37C1322.08 416.309 1325.05 423.086 1330.29 427.988C1335.53 432.89 1341.97 435.342 1349.62 435.342C1360.67 435.342 1368.53 430.511 1373.2 420.851H1405.27C1401.87 432.386 1395.36 441.902 1385.73 449.4C1376.1 456.754 1364.28 460.431 1350.26 460.431C1338.93 460.431 1328.73 457.907 1319.67 452.861C1310.75 447.67 1303.74 440.388 1298.64 431.016C1293.69 421.644 1291.21 410.829 1291.21 398.573C1291.21 386.173 1293.69 375.287 1298.64 365.915C1303.6 356.542 1310.54 349.333 1319.46 344.286C1328.38 339.24 1338.65 336.716 1350.26 336.716C1361.45 336.716 1371.43 339.167 1380.21 344.07C1389.13 348.972 1396 355.965 1400.81 365.049C1405.77 373.989 1408.25 384.299 1408.25 395.978ZM1377.45 387.327C1377.31 379.54 1374.54 373.34 1369.16 368.726C1363.78 363.968 1357.2 361.589 1349.41 361.589C1342.05 361.589 1335.82 363.896 1330.72 368.51C1325.76 372.98 1322.72 379.252 1321.58 387.327H1377.45Z" fill="#DBC273"/>
<path d="M1542.53 338.663L1469.67 515.15H1438.02L1463.51 455.456L1416.36 338.663H1449.71L1480.08 422.365L1510.88 338.663H1542.53Z" fill="#DBC273"/>
<path d="M1710.07 307.518V331.958H1670.56V458.484H1640.82V331.958H1601.31V307.518H1710.07Z" fill="#DBC273"/>
<path d="M1761.5 357.263C1765.32 350.919 1770.28 345.944 1776.37 342.34C1782.6 338.735 1789.68 336.932 1797.61 336.932V368.726H1789.75C1780.4 368.726 1773.32 370.961 1768.51 375.431C1763.84 379.901 1761.5 387.687 1761.5 398.79V458.484H1731.76V338.663H1761.5V357.263Z" fill="#DBC273"/>
<path d="M1809.99 398.141C1809.99 386.029 1812.33 375.287 1817 365.915C1821.82 356.542 1828.26 349.333 1836.33 344.286C1844.54 339.24 1853.68 336.716 1863.73 336.716C1872.51 336.716 1880.16 338.519 1886.67 342.123C1893.33 345.728 1898.64 350.27 1902.6 355.749V338.663H1932.55V458.484H1902.6V440.965C1898.78 446.588 1893.47 451.275 1886.67 455.023C1880.02 458.628 1872.3 460.431 1863.52 460.431C1853.61 460.431 1844.54 457.835 1836.33 452.644C1828.26 447.454 1821.82 440.172 1817 430.8C1812.33 421.283 1809.99 410.397 1809.99 398.141ZM1902.6 398.573C1902.6 391.22 1901.19 384.947 1898.35 379.757C1895.52 374.422 1891.7 370.384 1886.88 367.645C1882.07 364.761 1876.9 363.319 1871.38 363.319C1865.85 363.319 1860.76 364.689 1856.08 367.429C1851.41 370.168 1847.59 374.205 1844.61 379.54C1841.78 384.731 1840.37 390.931 1840.37 398.141C1840.37 405.35 1841.78 411.695 1844.61 417.174C1847.59 422.509 1851.41 426.618 1856.08 429.502C1860.9 432.386 1866 433.828 1871.38 433.828C1876.9 433.828 1882.07 432.458 1886.88 429.718C1891.7 426.834 1895.52 422.797 1898.35 417.606C1901.19 412.271 1902.6 405.927 1902.6 398.573Z" fill="#DBC273"/>
<path d="M2026.8 336.932C2040.82 336.932 2052.15 341.474 2060.79 350.558C2069.43 359.498 2073.75 372.043 2073.75 388.192V458.484H2044.01V392.301C2044.01 382.785 2041.67 375.503 2037 370.456C2032.33 365.266 2025.95 362.67 2017.88 362.67C2009.67 362.67 2003.16 365.266 1998.34 370.456C1993.67 375.503 1991.33 382.785 1991.33 392.301V458.484H1961.59V338.663H1991.33V353.586C1995.3 348.396 2000.32 344.358 2006.41 341.474C2012.64 338.446 2019.44 336.932 2026.8 336.932Z" fill="#DBC273"/>
<path d="M2147.06 460.431C2137.43 460.431 2128.79 458.7 2121.14 455.24C2113.49 451.635 2107.41 446.805 2102.87 440.749C2098.48 434.693 2096.08 427.988 2095.65 420.634H2125.6C2126.17 425.248 2128.36 429.069 2132.19 432.097C2136.15 435.125 2141.04 436.639 2146.84 436.639C2152.51 436.639 2156.9 435.486 2160.01 433.179C2163.27 430.872 2164.9 427.916 2164.9 424.311C2164.9 420.418 2162.92 417.534 2158.95 415.66C2155.13 413.641 2148.97 411.478 2140.47 409.171C2131.69 407.008 2124.47 404.773 2118.8 402.466C2113.28 400.159 2108.47 396.627 2104.36 391.869C2100.4 387.11 2098.41 380.694 2098.41 372.619C2098.41 365.987 2100.25 359.931 2103.94 354.451C2107.76 348.972 2113.14 344.647 2120.08 341.474C2127.16 338.302 2135.44 336.716 2144.93 336.716C2158.95 336.716 2170.14 340.321 2178.49 347.53C2186.85 354.596 2191.45 364.184 2192.3 376.296H2163.84C2163.41 371.538 2161.43 367.789 2157.89 365.049C2154.49 362.166 2149.89 360.724 2144.08 360.724C2138.7 360.724 2134.52 361.733 2131.55 363.752C2128.72 365.77 2127.3 368.582 2127.3 372.187C2127.3 376.224 2129.28 379.324 2133.25 381.487C2137.21 383.506 2143.37 385.596 2151.73 387.759C2160.22 389.922 2167.23 392.157 2172.76 394.464C2178.28 396.771 2183.02 400.376 2186.99 405.278C2191.09 410.036 2193.22 416.381 2193.36 424.311C2193.36 431.232 2191.45 437.432 2187.63 442.912C2183.94 448.391 2178.56 452.716 2171.48 455.889C2164.54 458.917 2156.4 460.431 2147.06 460.431Z" fill="#DBC273"/>
<path d="M2271.72 363.535H2251.12V458.484H2220.96V363.535H2207.58V338.663H2220.96V332.607C2220.96 317.9 2225.06 307.085 2233.28 300.164C2241.49 293.243 2253.88 289.999 2270.45 290.431V315.953C2263.23 315.809 2258.2 317.034 2255.37 319.63C2252.53 322.225 2251.12 326.911 2251.12 333.688V338.663H2271.72V363.535Z" fill="#DBC273"/>
<path d="M2400.38 395.978C2400.38 400.304 2400.1 404.197 2399.53 407.657H2313.51C2314.22 416.309 2317.19 423.086 2322.43 427.988C2327.67 432.89 2334.11 435.342 2341.76 435.342C2352.8 435.342 2360.66 430.511 2365.34 420.851H2397.41C2394.01 432.386 2387.5 441.902 2377.87 449.4C2368.24 456.754 2356.42 460.431 2342.4 460.431C2331.07 460.431 2320.87 457.907 2311.81 452.861C2302.89 447.67 2295.88 440.388 2290.78 431.016C2285.82 421.644 2283.35 410.829 2283.35 398.573C2283.35 386.173 2285.82 375.287 2290.78 365.915C2295.74 356.542 2302.68 349.333 2311.6 344.286C2320.52 339.24 2330.78 336.716 2342.4 336.716C2353.58 336.716 2363.57 339.167 2372.35 344.07C2381.27 348.972 2388.13 355.965 2392.95 365.049C2397.91 373.989 2400.38 384.299 2400.38 395.978ZM2369.58 387.327C2369.44 379.54 2366.68 373.34 2361.3 368.726C2355.92 363.968 2349.33 361.589 2341.55 361.589C2334.18 361.589 2327.95 363.896 2322.85 368.51C2317.9 372.98 2314.85 379.252 2313.72 387.327H2369.58Z" fill="#DBC273"/>
<path d="M2451.83 357.263C2455.65 350.919 2460.61 345.944 2466.69 342.34C2472.93 338.735 2480.01 336.932 2487.94 336.932V368.726H2480.08C2470.73 368.726 2463.65 370.961 2458.84 375.431C2454.16 379.901 2451.83 387.687 2451.83 398.79V458.484H2422.09V338.663H2451.83V357.263Z" fill="#DBC273"/>
<path d="M817.884 145.628C817.884 78.5696 859.811 31.6677 911.881 31.6677C940.283 31.6677 964.965 43.6839 983.9 66.5534C984.576 67.3286 984.576 68.8791 983.562 69.6543L977.137 76.6315C976.461 77.4067 975.447 77.4067 974.771 76.2438C958.879 56.0877 937.239 45.622 912.557 45.622C866.573 45.622 830.732 86.3219 830.732 145.24C830.732 204.933 867.587 246.408 913.571 246.408C941.973 246.408 957.527 234.78 973.756 217.337C974.432 216.562 975.447 216.562 976.123 216.949L983.223 223.926C983.9 224.702 983.9 226.252 983.223 227.027C963.613 249.122 942.649 260.75 914.586 260.75C860.149 261.138 817.884 213.461 817.884 145.628Z" fill="white"/>
<path d="M1012.64 177.4C1012.64 130.111 1044.08 93.2872 1085.67 93.2872C1127.26 93.2872 1159.04 130.111 1159.04 177.4C1159.04 224.69 1127.26 261.126 1085.67 261.126C1044.76 261.126 1012.64 224.69 1012.64 177.4ZM1146.87 177.4C1146.87 137.088 1119.82 106.854 1086.01 106.854C1052.2 106.854 1025.15 137.088 1025.15 177.4C1025.15 217.325 1052.2 247.947 1086.01 247.947C1120.16 247.947 1146.87 217.325 1146.87 177.4Z" fill="white"/>
<path d="M1325.4 169.261V254.925C1325.4 256.088 1324.72 257.251 1323.37 257.251H1313.9C1312.89 257.251 1311.87 256.475 1311.87 254.925V169.261C1311.87 127.786 1293.61 106.467 1265.55 106.467C1237.82 106.467 1217.2 126.623 1212.8 167.323V254.925C1212.8 256.088 1212.13 257.251 1210.77 257.251H1201.31C1200.29 257.251 1199.28 256.475 1199.28 254.925V99.102C1199.28 97.9392 1199.96 96.7763 1201.31 96.7763H1209.08C1210.1 96.7763 1210.77 97.5515 1211.11 99.102L1212.47 130.887C1223.62 107.242 1242.9 92.9001 1268.25 92.9001C1302.4 93.2877 1325.4 118.095 1325.4 169.261Z" fill="white"/>
<path d="M1498.18 169.261V254.925C1498.18 256.088 1497.5 257.251 1496.15 257.251H1486.68C1485.67 257.251 1484.65 256.475 1484.65 254.925V169.261C1484.65 127.786 1466.39 106.467 1438.33 106.467C1410.6 106.467 1389.98 126.623 1385.58 167.323V254.925C1385.58 256.088 1384.91 257.251 1383.55 257.251H1374.09C1373.07 257.251 1372.06 256.475 1372.06 254.925V99.102C1372.06 97.9392 1372.73 96.7763 1374.09 96.7763H1381.86C1382.88 96.7763 1383.55 97.5515 1383.89 99.102L1385.25 130.887C1396.4 107.242 1415.68 92.9001 1441.03 92.9001C1475.18 93.2877 1498.18 118.095 1498.18 169.261Z" fill="white"/>
<path d="M1674.33 176.239C1674.33 177.789 1674.33 180.115 1674 182.053C1674 183.604 1673.32 184.379 1671.97 184.379H1548.22C1549.91 222.365 1575.27 248.336 1608.74 248.336C1632.75 248.336 1651.34 234.382 1663.52 214.225C1664.53 213.45 1665.54 213.45 1666.56 213.838L1671.97 220.04C1672.64 221.203 1672.64 222.365 1671.97 223.141C1658.44 246.01 1634.78 261.515 1608.06 261.515C1567.15 261.515 1536.38 225.079 1536.38 177.789C1536.38 130.887 1566.48 93.676 1606.04 93.676C1644.24 93.2883 1674.33 128.562 1674.33 176.239ZM1548.22 171.975H1662.5C1661.49 133.213 1637.14 106.855 1606.04 106.855C1574.25 106.855 1550.25 133.988 1548.22 171.975Z" fill="white"/>
<path d="M1706.12 177.4C1706.12 130.498 1738.24 93.2872 1779.15 93.2872C1799.78 93.2872 1816.01 102.59 1829.19 117.319C1830.21 118.095 1829.87 120.033 1829.19 120.42L1823.44 126.235C1822.77 127.01 1821.42 127.01 1820.74 125.847C1812.29 117.32 1799.44 107.241 1779.83 107.241C1746.02 107.241 1719.3 138.251 1719.3 178.176C1719.3 217.325 1745.34 248.335 1781.18 248.335C1802.82 248.335 1814.99 236.706 1822.09 230.892C1823.11 230.117 1824.12 230.117 1824.8 230.892L1830.88 236.706C1831.56 237.481 1831.9 239.032 1831.22 239.807C1818.03 253.761 1799.78 261.901 1780.17 261.901C1737.56 261.126 1706.12 223.915 1706.12 177.4Z" fill="white"/>
<path d="M1936.71 255.712C1928.94 259.976 1918.12 261.139 1912.71 261.139C1889.72 261.139 1876.19 244.083 1876.19 210.748V109.967H1857.93C1856.92 109.967 1855.9 109.192 1855.9 107.642V99.5016C1855.9 98.3387 1856.58 97.1759 1857.93 97.1759H1876.19V50.274C1876.19 49.1112 1876.87 47.9483 1878.22 47.9483H1887.01C1888.03 47.9483 1889.04 48.7236 1889.04 50.274V97.1759H1934.35C1935.36 97.1759 1936.38 97.9511 1936.38 99.5016V107.642C1936.38 108.804 1935.7 109.967 1934.35 109.967H1889.04V211.136C1889.04 240.207 1899.18 247.96 1917.44 247.96C1928.6 247.96 1931.64 245.246 1934.35 244.083C1936.38 243.308 1937.05 244.471 1937.05 245.634L1938.4 252.999C1938.4 254.161 1938.07 254.937 1936.71 255.712Z" fill="white"/>
<path d="M2233.92 98.3274C2233.92 136.314 2208.56 163.06 2170.02 163.06H2108.82V255.313C2108.82 256.476 2108.14 257.639 2106.79 257.639H2097.66C2096.64 257.639 2095.63 256.863 2095.63 255.313V37.0837C2095.63 35.9208 2096.31 34.7579 2097.66 34.7579H2170.02C2208.56 34.7579 2233.92 59.5655 2233.92 98.3274ZM2221.07 99.1027C2221.07 69.6436 2200.78 49.0998 2169.68 49.0998H2108.48V148.718H2169.68C2201.12 149.105 2221.07 128.562 2221.07 99.1027Z" fill="white"/>
<path d="M2272.46 255.312V28.9435C2272.46 27.7806 2273.14 26.6177 2274.49 26.6177H2283.96C2284.97 26.6177 2285.99 27.393 2285.99 28.9435V255.312C2285.99 256.475 2285.31 257.638 2283.96 257.638H2274.49C2273.14 257.25 2272.46 256.475 2272.46 255.312Z" fill="white"/>
<path d="M2457.08 99.4898V255.313C2457.08 256.475 2456.4 257.638 2455.05 257.638H2447.61C2446.6 257.638 2445.58 256.863 2445.58 255.313L2443.89 224.303C2432.4 248.723 2412.79 261.127 2388.44 261.127C2353.95 261.127 2331.98 236.319 2331.98 184.766V99.1022C2331.98 97.9394 2332.65 96.7765 2334 96.7765H2343.47C2344.49 96.7765 2345.5 97.5518 2345.5 99.1022V184.766C2345.5 226.241 2363.76 247.56 2391.82 247.56C2419.55 247.56 2439.5 227.404 2444.23 186.704V99.4898C2444.23 98.327 2444.91 97.1641 2446.26 97.1641H2455.39C2456.06 97.1641 2457.08 98.327 2457.08 99.4898Z" fill="white"/>
<path d="M2495.62 235.156C2494.95 233.993 2494.95 232.443 2495.62 231.28L2499.34 225.853C2500.36 223.915 2502.05 224.303 2503.06 225.853C2510.84 240.195 2527.74 247.948 2548.71 247.948C2575.76 247.948 2589.62 235.544 2589.62 214.612C2589.62 191.743 2573.39 186.704 2546.68 180.114C2524.7 175.075 2497.99 168.486 2497.99 137.864C2497.99 110.343 2518.95 92.9001 2549.38 92.9001C2572.71 92.9001 2587.93 102.978 2599.43 115.382C2600.44 116.157 2600.44 118.095 2599.76 119.258L2596.04 124.685C2595.03 126.235 2593.68 126.235 2592.66 125.072C2580.15 111.893 2565.95 106.467 2550.4 106.467C2526.39 106.467 2511.18 118.095 2511.18 137.476C2511.18 158.795 2530.79 163.059 2551.07 167.71C2578.12 173.912 2602.81 181.277 2602.81 214.225C2602.81 243.296 2583.87 261.127 2549.72 261.127C2524.36 261.127 2504.75 251.436 2495.62 235.156Z" fill="white"/>
<defs>
<linearGradient id="paint0_linear" x1="18.5843" y1="329.501" x2="633.887" y2="429.253" gradientUnits="userSpaceOnUse">
<stop offset="0.213542" stop-color="#E1C66F"/>
<stop offset="0.471225" stop-color="#B16F0E"/>
<stop offset="0.567975" stop-color="#B16F0E"/>
<stop offset="0.8125" stop-color="#E1C66F"/>
</linearGradient>
<linearGradient id="paint1_linear" x1="18.5845" y1="329.501" x2="633.887" y2="429.253" gradientUnits="userSpaceOnUse">
<stop offset="0.213542" stop-color="#E1C66F"/>
<stop offset="0.471225" stop-color="#B16F0E"/>
<stop offset="0.567975" stop-color="#B16F0E"/>
<stop offset="0.8125" stop-color="#E1C66F"/>
</linearGradient>
</defs>
</svg>
