<svg width="11" height="11" viewBox="0 0 11 11" fill="none" xmlns="http://www.w3.org/2000/svg">
<path d="M0.226992 9.4271C0.0327346 9.62137 0.0327346 9.93633 0.226992 10.1306C0.421264 10.3249 0.73623 10.3249 0.930487 10.1306L5.08126 5.97985L9.23211 10.1307C9.42637 10.3249 9.74134 10.3249 9.93559 10.1307C10.1299 9.93641 10.1299 9.62144 9.93559 9.42718L5.78474 5.27636L9.93559 1.12555C10.1299 0.931288 10.1299 0.616326 9.93559 0.422064C9.74134 0.227801 9.42637 0.227802 9.2321 0.422064L5.08126 4.57287L0.930502 0.422143C0.73623 0.227881 0.421264 0.227881 0.227007 0.422143C0.0327346 0.616406 0.0327346 0.931368 0.227007 1.12563L4.37777 5.27636L0.226992 9.4271Z" fill="#ff0000"/>
</svg>
