<svg viewBox="0 0 99 99" fill="none" xmlns="http://www.w3.org/2000/svg">
<path d="M56.3639 72.1462C56.3276 71.8674 56.2847 71.5902 56.255 71.308C49.3828 69.4864 42.2894 69.5871 35.668 71.4367C39.4894 79.53 44.0599 85.5937 46.1999 88.2073C48.2789 85.6713 52.6498 79.9177 56.3771 72.2485C56.3722 72.2155 56.3672 72.1809 56.3639 72.1462Z" fill="#C4D2FA"/>
<path d="M46.2 25.7037C42.1954 25.7037 38.1942 25.1378 34.32 24.0141C31.7757 30.0861 29.8287 37.0904 29.5713 44.55H62.8303C62.5729 37.0838 60.6292 30.0812 58.0866 24.0108C54.2107 25.1361 50.2062 25.7037 46.2 25.7037Z" fill="#C4D2FA"/>
<path d="M56.7237 20.9468C52.9056 12.8651 48.34 6.80794 46.2016 4.19434C44.0632 6.80959 39.501 12.87 35.6829 20.9484C42.5584 22.8558 49.8481 22.8558 56.7237 20.9468Z" fill="#C4D2FA"/>
<path d="M72.4118 12.2744C66.0659 7.36067 58.3126 4.18607 49.8662 3.46832C52.4188 6.71717 56.4943 12.4757 59.9411 19.8891C64.4374 18.2078 68.668 15.6635 72.4118 12.2744Z" fill="#C4D2FA"/>
<path d="M42.5336 3.46832C34.0873 4.18772 26.3339 7.36067 19.988 12.2744C23.7319 15.6635 27.9625 18.2078 32.4587 19.8891C35.9039 12.4757 39.9811 6.71717 42.5336 3.46832Z" fill="#C4D2FA"/>
<path d="M34.3166 68.3942C41.3077 66.3532 48.802 66.1106 56.0999 67.8596V52.8C56.0999 52.1912 56.4349 51.6318 56.9711 51.3447C57.5057 51.0576 58.1608 51.089 58.664 51.4272C59.2795 51.8381 59.9098 52.2159 60.545 52.5822C61.1225 52.9106 61.7149 53.229 62.3254 53.531C62.3303 53.5326 62.3336 53.5359 62.3386 53.5376C62.6224 51.6071 62.7643 49.7129 62.8286 47.85H29.5696C29.8286 55.3196 31.774 62.3238 34.3166 68.3942Z" fill="#C4D2FA"/>
<path d="M66.1566 44.55H89.0586C88.6048 32.6321 83.2753 21.9417 75.0006 14.4326C70.9036 18.2276 66.2358 21.059 61.2825 22.9367C63.9043 29.2842 65.9058 36.6416 66.1566 44.55Z" fill="#C4D2FA"/>
<path d="M72.5307 82.4274L77.55 86.6102L82.5709 82.4274C86.7207 78.969 89.1 73.887 89.1 68.4849V65.5067C81.5941 67.5494 73.5058 67.5494 66 65.5067V68.4849C66 73.887 68.3793 78.969 72.5307 82.4274Z" fill="#E8CD7B"/>
<path d="M62.9856 57.4761C62.9674 57.4678 62.9493 57.4596 62.9295 57.4514C62.3454 57.2022 61.7646 56.9448 61.192 56.6643C61.0287 56.5851 60.8686 56.496 60.7069 56.4135C60.2697 56.1924 59.8308 55.9795 59.4001 55.7386V68.4833C59.4001 69.1614 59.4562 69.8313 59.5107 70.5012C59.5635 71.049 59.6278 71.6117 59.7235 72.2353C59.7252 72.2453 59.7219 72.2552 59.7235 72.2651C59.7895 72.6924 59.8489 73.1231 59.9364 73.5455C60.0073 73.8887 60.0964 74.2269 60.1822 74.5652C60.301 75.0354 60.4297 75.5023 60.5749 75.9627C60.6921 76.3306 60.8175 76.6953 60.9511 77.0567C61.1029 77.4659 61.2679 77.8685 61.4412 78.2694C61.6078 78.6555 61.7761 79.0416 61.9642 79.4195C62.1342 79.7627 62.3223 80.0976 62.5087 80.4326C62.7348 80.8401 62.9559 81.251 63.205 81.647C63.3601 81.8945 63.5367 82.1288 63.7017 82.3697C64.4409 83.4537 65.2494 84.4982 66.1651 85.4684C66.1717 85.475 66.1767 85.4848 66.1833 85.4931C66.8482 86.1944 67.5528 86.8676 68.3052 87.4946L77.5501 95.2017L86.7951 87.4979C92.4546 82.7822 95.7001 75.8522 95.7001 68.4849V55.7403C85.5675 61.3883 73.5159 61.9559 62.9856 57.4761ZM90.2353 61.7199C90.7419 61.5565 91.2913 61.6424 91.7187 61.9509C92.146 62.2611 92.4001 62.7594 92.4001 63.2874V68.4833C92.4001 74.8688 89.5869 80.8748 84.6831 84.9618L78.6045 90.024C78.2992 90.2781 77.9247 90.4052 77.5485 90.4052C77.1723 90.4052 76.7977 90.2781 76.4925 90.024L70.4155 84.9618C70.4139 84.9618 70.4139 84.9618 70.4139 84.9618C65.5134 80.8764 62.7001 74.8688 62.7001 68.4849V63.289C62.7001 62.7594 62.9542 62.2628 63.3816 61.9526C63.8106 61.644 64.3617 61.5582 64.8649 61.7216C73.039 64.4078 82.0612 64.4077 90.2353 61.7199Z" fill="#38539C"/>
<path d="M26.2433 47.85H3.34131C3.79506 59.7729 9.12951 70.4682 17.4092 77.9774C21.455 74.2319 26.113 71.3675 31.1158 69.4634C28.4956 63.1158 26.4941 55.7585 26.2433 47.85Z" fill="#C4D2FA"/>
<path d="M31.1174 22.9367C26.1641 21.0606 21.4963 18.2276 17.3993 14.4326C9.12456 21.9417 3.79506 32.6321 3.34131 44.55H26.2433C26.4941 36.6416 28.4956 29.2842 31.1174 22.9367ZM11.5501 41.25H8.25006V37.95H11.5501V41.25ZM11.5501 34.65H8.25006V31.35H11.5501V34.65ZM18.1501 41.25H14.8501V37.95H18.1501V41.25Z" fill="#C4D2FA"/>
<path d="M61.3586 84.7853C61.0847 84.4041 60.8174 84.0213 60.565 83.6286C60.3274 83.259 60.098 82.8878 59.8802 82.5083C59.6162 82.0512 59.372 81.5859 59.1344 81.1173C58.9678 80.7857 58.7896 80.4606 58.6361 80.1224C58.2731 79.3287 57.9448 78.5202 57.6577 77.6969C57.6065 77.5484 57.5636 77.3949 57.5141 77.2448C54.6976 82.4043 51.815 86.427 49.8499 88.94C54.1184 88.5819 58.2698 87.6002 62.2447 85.9914C62.2166 85.9568 62.1935 85.9188 62.1655 85.8842C61.8817 85.5261 61.6243 85.1549 61.3586 84.7853Z" fill="#C4D2FA"/>
<path d="M19.9634 80.1058C26.3142 85.0311 34.0758 88.2123 42.5337 88.9333C39.9795 85.6812 35.8974 79.9144 32.4489 72.4894C27.9048 74.1955 23.6627 76.753 19.9634 80.1058Z" fill="#C4D2FA"/>
<path d="M65.4507 54.9071C72.6447 57.623 80.6703 57.8639 88.0887 55.4516C88.6398 52.9469 88.9549 50.3993 89.0539 47.85H66.1519C66.076 50.1567 65.8401 52.5179 65.4507 54.9071Z" fill="#C4D2FA"/>
<path d="M98.1288 51.3447C97.5942 51.0576 96.9391 51.0889 96.4359 51.4272C94.9179 52.4386 93.3372 53.3082 91.7169 54.0523C92.164 51.4536 92.4 48.8235 92.4 46.2C92.4 20.7256 71.6743 0 46.2 0C20.7256 0 0 20.7256 0 46.2C0 71.6743 20.7256 92.4 46.2 92.4C52.597 92.4 58.7796 91.0982 64.6057 88.5588C65.1222 89.062 65.632 89.5703 66.1914 90.0356L76.4923 98.6189C76.7992 98.8729 77.1738 99 77.55 99C77.9262 99 78.3008 98.8729 78.6077 98.6189L88.9086 90.0356C95.3221 84.6896 99 76.8355 99 68.4849V52.8C99 52.1912 98.665 51.6318 98.1288 51.3447ZM35.668 71.4384C42.2878 69.5871 49.3812 69.4865 56.2551 71.3097C56.2832 71.5919 56.326 71.869 56.364 72.1479C56.3689 72.1825 56.3722 72.2155 56.3772 72.2502C52.6515 79.9194 48.279 85.673 46.2 88.209C44.0599 85.5938 39.4894 79.53 35.668 71.4384ZM42.5337 88.9317C34.0758 88.2123 26.3142 85.0311 19.9634 80.1042C23.6643 76.7514 27.9065 74.1939 32.4489 72.4878C35.8974 79.9128 39.9778 85.6796 42.5337 88.9317ZM56.9712 51.3447C56.4349 51.6318 56.1 52.1912 56.1 52.8V67.8612C48.8004 66.1105 41.3061 66.3531 34.3167 68.3958C31.774 62.3254 29.8287 55.3212 29.5713 47.8517H62.8303C62.7643 49.7161 62.6225 51.6087 62.3403 53.5392C62.3354 53.5376 62.332 53.5342 62.3271 53.5326C61.7166 53.2306 61.1242 52.9122 60.5467 52.5838C59.9115 52.2175 59.2828 51.8397 58.6657 51.4289C58.1609 51.089 57.5075 51.0576 56.9712 51.3447ZM46.2016 4.1943C48.3417 6.8079 52.9056 12.865 56.7237 20.9467C49.8481 22.8558 42.5584 22.8575 35.6829 20.9484C39.501 12.87 44.0632 6.80955 46.2016 4.1943ZM32.4588 19.8891C27.9626 18.2078 23.732 15.6635 19.9881 12.2744C26.334 7.36065 34.0873 4.18605 42.5337 3.4683C39.9811 6.71715 35.904 12.4756 32.4588 19.8891ZM49.8663 3.4683C58.3126 4.1877 66.066 7.36065 72.4119 12.2744C68.6681 15.6635 64.4374 18.2078 59.9412 19.8891C56.496 12.4756 52.4188 6.71715 49.8663 3.4683ZM46.2 25.7037C50.2062 25.7037 54.2107 25.1361 58.0866 24.0125C60.6276 30.0812 62.5713 37.0837 62.8303 44.5516H29.5696C29.8287 37.0903 31.7757 30.0877 34.3183 24.0158C38.1942 25.1361 42.1954 25.7037 46.2 25.7037ZM89.0555 47.85C88.9565 50.3993 88.6413 52.9468 88.0902 55.4515C80.6718 57.8638 72.6462 57.623 65.4522 54.9071C65.8416 52.5178 66.0775 50.155 66.1535 47.85H89.0555ZM89.0587 44.55H66.1568C65.906 36.6415 63.9045 29.2842 61.2826 22.9366C66.2359 21.0606 70.9038 18.2275 75.0008 14.4325C83.2755 21.9417 88.605 32.632 89.0587 44.55ZM17.3993 14.4325C21.4962 18.2275 26.164 21.059 31.1173 22.9366C28.4955 29.2842 26.494 36.6415 26.2432 44.55H3.34125C3.795 32.632 9.1245 21.9417 17.3993 14.4325ZM3.34125 47.85H26.2432C26.4924 55.7584 28.4955 63.1158 31.1173 69.4633C26.1145 71.3674 21.4566 74.2318 17.4108 77.9773C9.12945 70.4682 3.795 59.7729 3.34125 47.85ZM49.8481 88.9383C51.8116 86.4253 54.6942 82.4026 57.5124 77.2431C57.5619 77.3932 57.6031 77.5451 57.6559 77.6952C57.9431 78.5186 58.2714 79.327 58.6344 80.1207C58.7878 80.4589 58.9661 80.784 59.1327 81.1156C59.3703 81.5843 59.6145 82.0512 59.8785 82.5066C60.0979 82.8861 60.3273 83.259 60.5633 83.6269C60.8157 84.0196 61.0847 84.4025 61.3569 84.7836C61.6209 85.1532 61.8799 85.5244 62.1637 85.8825C62.1918 85.9171 62.2149 85.9551 62.2429 85.9898C58.2681 87.5985 54.1184 88.5802 49.8481 88.9383ZM95.7 68.4849C95.7 75.8521 92.4545 82.7822 86.795 87.4978L77.55 95.2017L68.305 87.4978C67.5527 86.8708 66.8481 86.1977 66.1832 85.4964C66.1766 85.4882 66.1716 85.4799 66.165 85.4716C65.2492 84.5014 64.4408 83.457 63.7015 82.3729C63.5365 82.1304 63.36 81.8961 63.2049 81.6503C62.9557 81.2542 62.7346 80.8434 62.5086 80.4359C62.3221 80.1009 62.1341 79.7659 61.9641 79.4227C61.7776 79.0449 61.6093 78.6588 61.441 78.2727C61.2678 77.8717 61.1028 77.4691 60.951 77.0599C60.8173 76.6986 60.6903 76.334 60.5748 75.966C60.4296 75.5057 60.3009 75.0387 60.1821 74.5685C60.0963 74.2286 60.0072 73.892 59.9362 73.5488C59.8488 73.1264 59.7894 72.6973 59.7234 72.2683C59.7217 72.2584 59.725 72.2485 59.7234 72.2386C59.6277 71.6133 59.5634 71.0507 59.5106 70.5045C59.4561 69.8329 59.4 69.163 59.4 68.4849V55.7403C59.8307 55.9796 60.2696 56.1924 60.7068 56.4152C60.8701 56.4977 61.0285 56.5867 61.1919 56.6659C61.7661 56.9464 62.3452 57.2038 62.9293 57.453C62.9475 57.4613 62.9656 57.4695 62.9855 57.4777C73.5157 61.9575 85.569 61.3899 95.7 55.742V68.4849Z" fill="#232836"/>
<path d="M64.8648 61.7199C64.3599 61.5566 63.8087 61.6424 63.3814 61.951C62.954 62.2612 62.7 62.7595 62.7 63.2875V68.4833C62.7 74.8688 65.5132 80.8748 70.417 84.9619C70.417 84.9619 70.417 84.9619 70.4187 84.9619L76.4956 90.0241C76.8009 90.2782 77.1754 90.4052 77.5516 90.4052C77.9278 90.4052 78.3024 90.2782 78.6076 90.0241L84.6862 84.9619C89.5867 80.8765 92.4 74.8688 92.4 68.485V63.2891C92.4 62.7594 92.1459 62.2628 91.7185 61.9526C91.2895 61.6441 90.7401 61.5583 90.2352 61.7216C82.0611 64.4078 73.0389 64.4078 64.8648 61.7199ZM89.1 68.485C89.1 73.8871 86.7207 78.9691 82.5709 82.4275L77.55 86.6102L72.529 82.4275H72.5307C68.3793 78.9691 66 73.8871 66 68.485V65.5067C73.5058 67.5494 81.5941 67.5494 89.1 65.5067V68.485Z" fill="#232836"/>
<path d="M73.7821 72.7694L70.95 75.2223L74.9559 78.6917C75.3465 79.03 75.8592 79.2 76.372 79.2C76.8847 79.2 77.3975 79.03 77.7881 78.6917L85.7999 71.7529L82.9678 69.3L76.372 75.0124L73.7821 72.7694Z" fill="#232836"/>
<path d="M11.55 37.95H8.25V41.25H11.55V37.95Z" fill="#232836"/>
<path d="M18.1499 37.95H14.8499V41.25H18.1499V37.95Z" fill="#232836"/>
<path d="M11.55 31.35H8.25V34.65H11.55V31.35Z" fill="#232836"/>
</svg>
