<svg viewBox="0 0 620 620" fill="none" xmlns="http://www.w3.org/2000/svg">
<rect x="113.667" y="124" width="485.667" height="330.667" fill="#BECAF0"/>
<path d="M361.667 372.981C384.495 372.981 403 354.476 403 331.648C403 308.82 384.495 290.315 361.667 290.315C338.839 290.315 320.333 308.82 320.333 331.648C320.333 354.476 338.839 372.981 361.667 372.981Z" fill="#DDE5F8"/>
<path d="M206.667 352.315H22.4337C26.7014 364.343 38.192 372.982 51.6667 372.982H124V393.649H63.9014C68.1794 405.646 79.546 414.315 93 414.315H165.333V434.982H105.235C109.513 446.979 120.879 455.649 134.333 455.649H206.667V476.315H146.568C150.846 488.312 162.213 496.982 175.667 496.982H206.667C246.553 496.982 279 464.525 279 424.649C279 384.772 246.553 352.315 206.667 352.315Z" fill="#E8CD7B"/>
<path d="M361.666 269.649C327.473 269.649 299.667 297.456 299.667 331.649C299.667 365.842 327.473 393.649 361.666 393.649C395.859 393.649 423.666 365.842 423.666 331.649C423.666 297.456 395.859 269.649 361.666 269.649ZM361.666 372.982C338.871 372.982 320.333 354.444 320.333 331.649C320.333 308.854 338.871 290.316 361.666 290.316C384.462 290.316 403 308.854 403 331.649C403 354.444 384.462 372.982 361.666 372.982Z" fill="#232836"/>
<path d="M252.206 27.7038C272.883 32.5811 293.539 40.0315 313.513 47.2648C337.755 56.0275 362.814 65.0898 388.936 69.9981C400.169 72.1165 412.248 73.3358 424.555 73.3358C463.367 73.3358 504.463 61.2148 528.602 26.9185L511.696 15.0351C485.522 52.2351 431.251 56.9368 392.749 49.6931C368.259 45.0845 343.997 36.3011 320.519 27.8278C299.997 20.4085 278.773 12.7308 256.928 7.5848C178.881 -10.7879 92.5352 4.90847 25.9473 49.6311L37.4689 66.7845C99.3759 25.2135 179.645 10.6435 252.206 27.7038Z" fill="#232836"/>
<path d="M453.964 588.235C425.113 589.712 396.831 584.897 366.875 579.823C356.717 578.108 346.57 576.383 336.412 574.915C249.839 562.474 174.664 571.35 113.005 601.358L122.047 619.948C179.924 591.789 251.048 583.533 333.457 595.385C343.449 596.822 353.431 598.516 363.413 600.201C393.142 605.243 423.946 610.462 454.997 608.891C504.473 606.39 546.096 584.804 566.349 551.138L548.638 540.484C531.95 568.24 496.548 586.085 453.964 588.235Z" fill="#232836"/>
<path d="M609.667 104.315H113.667C107.963 104.315 103.333 108.934 103.333 114.648V155.982V197.315V331.648H10.3333C4.62933 331.648 0 336.267 0 341.982C0 367.236 18.2177 388.316 42.2013 392.78C46.0867 413.685 62.62 430.228 83.5347 434.114C87.42 455.018 103.953 471.562 124.868 475.447C129.332 499.431 150.412 517.648 175.667 517.648H206.667C238.834 517.648 267.241 501.218 283.939 476.315H609.667C615.371 476.315 620 471.696 620 465.982V197.315V155.982V114.648C620 108.934 615.371 104.315 609.667 104.315ZM599.333 124.982V145.648H124V124.982H599.333ZM599.333 186.982H124V166.315H599.333V186.982ZM206.667 496.982H175.667C162.213 496.982 150.846 488.312 146.568 476.315H206.667V455.648H134.333C120.879 455.648 109.513 446.979 105.235 434.982H165.333V414.315H93C79.546 414.315 68.1793 405.645 63.9013 393.648H124V372.982H51.6667C38.192 372.982 26.7013 364.343 22.4337 352.315H206.667C246.553 352.315 279 384.772 279 424.648C279 464.525 246.553 496.982 206.667 496.982ZM299.057 414.315C293.89 367.887 254.448 331.648 206.667 331.648H165.333V289.271C185.545 285.159 201.51 269.194 205.623 248.982L517.7 248.992C521.823 269.204 537.788 285.159 558 289.271V374.015C537.788 378.128 521.833 394.093 517.71 414.305L299.057 414.315ZM599.333 455.648H294.242C296.587 449.056 298.261 442.153 299.057 434.982L527 434.971C532.704 434.971 537.333 430.352 537.333 424.638C537.333 407.557 551.242 393.648 568.333 393.648C571.072 393.648 573.707 392.563 575.639 390.621C577.571 388.678 578.667 386.064 578.667 383.315L578.656 279.982C578.656 274.267 574.027 269.648 568.323 269.648C551.232 269.648 537.333 255.74 537.323 238.648C537.323 232.934 532.694 228.315 526.99 228.315H196.333C190.629 228.315 186 232.934 186 238.648C186 255.74 172.091 269.648 155 269.648C149.296 269.648 144.667 274.267 144.667 279.982V331.648H124V207.648H599.333V455.648Z" fill="#232836"/>
<path d="M578.667 496.981H465V517.648H578.667V496.981Z" fill="#232836"/>
<path d="M444.333 496.981H423.667V517.648H444.333V496.981Z" fill="#232836"/>
<path d="M403 496.981H382.334V517.648H403V496.981Z" fill="#232836"/>
<path d="M361.667 496.981H341V517.648H361.667V496.981Z" fill="#232836"/>
</svg>
