<svg viewBox="0 0 84 99" fill="none" xmlns="http://www.w3.org/2000/svg">
<path fill-rule="evenodd" clip-rule="evenodd" d="M62.7495 74.8558C68.1904 68.4563 71.5418 60.6561 71.5399 52.1763L71.5341 25.844L40.6012 10.1619L9.66748 25.8361V52.1748C9.66748 60.6549 13.0161 68.4557 18.4578 74.856C24.1872 81.5947 32.1258 86.6276 40.6045 89.1708C49.0833 86.6276 57.0209 81.5937 62.7495 74.8558Z" fill="white"/>
<path d="M4.94995 25.5751L41.25 7.42505L75.075 23.925V51.9751L64.3499 79.2001L39.5999 93.2251L11.55 72.6001L4.94995 25.5751Z" fill="#C4D2FA"/>
<path fill-rule="evenodd" clip-rule="evenodd" d="M40.6013 10.1619L71.5342 25.844L71.54 52.1763C71.542 60.6561 68.1906 68.4563 62.7497 74.8558C57.0211 81.5938 49.0834 86.6276 40.6044 89.1708C32.1258 86.6276 24.1872 81.5947 18.4578 74.856C13.0161 68.4557 9.66745 60.655 9.66745 52.1748V25.8361L40.6013 10.1619ZM42.4786 2.44254C41.3676 1.80274 39.9681 1.74667 38.7683 2.4205L4.12426 19.9747C2.82958 20.6002 1.93359 21.9476 1.93359 23.5093V52.1748C1.93359 62.6216 6.01814 72.1646 12.5656 79.8658C19.4572 87.9714 29.0981 94.0328 39.5371 96.9112C40.1845 97.1048 40.8898 97.1251 41.5888 96.934C52.0591 94.0647 61.7323 87.9927 68.6421 79.8658C75.1895 72.1648 79.2741 62.6216 79.2741 52.175L79.2679 23.5095C79.2665 22.1334 78.5521 20.7999 77.2893 20.0907L42.4786 2.44254Z" fill="#38539C"/>
<g filter="url(#filter0_d)">
<path fill-rule="evenodd" clip-rule="evenodd" d="M42.7392 37.3143C42.7852 37.3143 65.4732 51.1087 67.6604 52.3715C68.4379 52.8203 69.0011 53.5026 69.3133 54.2799L79.2742 50.5476V25.9582L63.4533 30.6541L49.2359 26.4247C47.2891 25.8457 45.6793 25.6798 43.8136 26.7569L40.5603 28.6351L32.6951 33.176C30.8293 34.2531 30.1845 36.6613 31.2614 38.527C32.3386 40.3926 34.6807 40.9149 36.6122 39.9607C38.3166 39.1188 40.9599 37.9346 42.7392 37.3143Z" fill="white"/>
</g>
<path fill-rule="evenodd" clip-rule="evenodd" d="M18.4819 55.7912C19.5448 53.9449 18.9059 51.5643 17.0604 50.4988C15.2135 49.4324 12.8303 50.0711 11.7639 51.918C11.1868 52.9176 10.6096 53.9172 10.0325 54.9168C9.87798 55.1844 9.72349 55.452 9.56901 55.7196C8.50268 57.5665 9.14131 59.9498 10.9882 61.0161C12.8334 62.0813 15.2137 61.445 16.2816 59.6023L18.4819 55.7912Z" fill="white"/>
<path fill-rule="evenodd" clip-rule="evenodd" d="M20.4235 52.4276C19.7762 53.5486 19.1289 54.6699 18.4817 55.7911L16.2814 59.6021C16.0072 60.0768 15.7332 60.5514 15.4591 61.0263C14.3929 62.873 15.0314 65.2564 16.8784 66.3228C18.7253 67.3891 21.1086 66.7505 22.1749 64.9036C22.3686 64.5679 22.5626 64.2321 22.7563 63.8964L26.5576 57.3122C26.7515 56.9766 26.9453 56.6407 27.1392 56.3049C28.2055 54.458 27.5669 52.0747 25.72 51.0084C23.8731 49.9423 21.4897 50.5809 20.4235 52.4276Z" fill="white"/>
<path fill-rule="evenodd" clip-rule="evenodd" d="M26.5581 57.3122L22.7568 63.8964C21.6908 65.7431 22.3293 68.1264 24.1762 69.1925C26.0231 70.2588 28.4063 69.6202 29.4726 67.7735C29.7404 67.3099 30.008 66.846 30.2758 66.3823L32.4707 62.5807C32.7385 62.117 33.0061 61.6532 33.2739 61.1895C34.3401 59.3428 33.7016 56.9594 31.8547 55.893C30.0076 54.8269 27.6242 55.4655 26.5581 57.3122Z" fill="white"/>
<path fill-rule="evenodd" clip-rule="evenodd" d="M32.4702 62.5806L30.2753 66.3823C29.209 68.2292 29.8476 70.6124 31.6945 71.6788C33.4857 72.7128 35.7814 72.1436 36.891 70.4235C36.9256 70.37 36.9589 70.3154 36.991 70.2598L39.1859 66.4581C39.8398 65.3254 39.8524 63.9911 39.3386 62.8824C39.0146 62.1833 38.4811 61.574 37.7667 61.1616C35.9198 60.0951 33.5364 60.7337 32.4702 62.5806Z" fill="white"/>
<path fill-rule="evenodd" clip-rule="evenodd" d="M32.4702 62.5808C33.5366 60.7339 35.9198 60.0955 37.7667 61.1618C38.4809 61.5742 39.0144 62.1834 39.3386 62.8826L46.6583 67.1087L50.4366 69.2901C52.2835 70.3562 54.6667 69.7176 55.7331 67.8709C56.799 66.0244 56.1612 63.6417 54.315 62.5752L56.5332 63.8557C58.38 64.9221 60.7633 64.2834 61.8296 62.4365C62.8956 60.59 62.2577 58.2076 60.4118 57.1409L63.7832 59.0875C65.6301 60.1536 68.0134 59.515 69.0797 57.6683C69.6971 56.5989 69.7429 55.3495 69.3135 54.2802C69.0012 53.503 68.438 52.8208 67.6605 52.3718C65.4733 51.1091 42.7853 37.3146 42.7393 37.3146C40.9601 37.9349 38.3168 39.1192 36.6126 39.9608C34.681 40.915 32.3387 40.3928 31.2618 38.5271C30.1848 36.6617 30.8296 34.2535 32.6955 33.1761L40.5606 28.6353L37.3073 26.7569C35.4416 25.6797 33.8318 25.8456 31.8849 26.4249L17.6676 30.6543L1.93408 25.6515V50.2409L10.0328 54.9167C10.6099 53.9171 11.1871 52.9175 11.7642 51.9179C12.8306 50.071 15.2138 49.4323 17.0607 50.4987C18.9062 51.5642 19.5451 53.9448 18.4822 55.7911C19.1296 54.6698 19.7767 53.5488 20.4241 52.4275C21.4902 50.5806 23.8734 49.9422 25.7205 51.0085C27.5674 52.0747 28.2061 54.4579 27.1397 56.3048C26.9458 56.6405 26.7521 56.9765 26.5581 57.3122C27.6243 55.4655 30.0077 54.8268 31.8546 55.8932C33.7015 56.9595 34.3401 59.3427 33.2738 61.1896C33.0056 61.6533 32.7378 62.1171 32.4702 62.5808Z" fill="white"/>
<path fill-rule="evenodd" clip-rule="evenodd" d="M39.3385 62.8823C39.8524 63.991 39.8396 65.3253 39.1857 66.458C38.4541 67.7252 37.7224 68.9924 36.9908 70.2596C36.9587 70.3153 36.9252 70.37 36.8906 70.4234L42.7801 73.8237C44.627 74.89 47.0102 74.2514 48.0766 72.4045C49.1427 70.558 48.5043 68.1751 46.6581 67.1086L39.3385 62.8823Z" fill="white"/>
<path d="M81.2013 23.5074C81.1994 21.3861 80.0631 19.4308 78.2361 18.4047C78.2121 18.3911 78.1879 18.3784 78.1636 18.3658L43.3946 0.739125C41.6622 -0.236911 39.6012 -0.246772 37.8615 0.712443L3.26531 18.2422C1.28114 19.2094 0 21.2748 0 23.5091V52.1746C0 62.5742 3.8357 72.5824 11.0926 81.1179C18.2185 89.4991 28.1303 95.7674 39.0047 98.7697C39.5256 98.923 40.0629 99 40.601 99C41.1041 99 41.608 98.9329 42.0999 98.7985C53.0152 95.8074 62.9644 89.5283 70.1151 81.1179C77.372 72.5826 81.2077 62.5742 81.2077 52.1742L81.2013 23.5074ZM3.86702 28.2953L17.0812 32.4969C17.4507 32.6144 17.8469 32.6181 18.2185 32.5075L32.4356 28.2779C34.2533 27.7371 35.2023 27.7745 36.34 28.4313L36.693 28.6351L31.7283 31.5015C28.9346 33.1144 27.9739 36.6997 29.587 39.4937C31.1475 42.1965 34.536 43.143 37.4686 41.6942C38.8953 40.9894 40.9479 40.0644 42.5411 39.4484C43.8836 40.258 46.8221 42.0391 49.8908 43.8994C56.784 48.0777 65.3629 53.2779 66.6936 54.0462C67.1396 54.3038 67.4597 54.7232 67.5948 55.2276C67.73 55.7319 67.6627 56.2553 67.4051 56.7013C66.8691 57.6296 65.6781 57.9484 64.75 57.4129L61.3815 55.4679C61.3809 55.4676 61.3799 55.467 61.3791 55.4666L61.3786 55.4662L48.8685 48.2438C47.9437 47.7097 46.7614 48.0266 46.2274 48.9514C45.6933 49.8762 46.0102 51.0588 46.935 51.5926L59.4443 58.8147C59.4445 58.8147 59.4447 58.8149 59.4449 58.815L59.4468 58.816C60.3726 59.3528 60.6902 60.5424 60.155 61.4696C59.8975 61.9154 59.4779 62.2354 58.9737 62.3708C58.469 62.5057 57.9458 62.4384 57.4999 62.1811L55.2843 60.9019C55.2837 60.9015 55.2832 60.9013 55.2824 60.9009L55.2818 60.9005L44.2993 54.56C43.3745 54.0261 42.1921 54.3428 41.6581 55.2676C41.1241 56.1924 41.441 57.375 42.3658 57.9088L53.3462 64.2482C53.3468 64.2484 53.3471 64.2488 53.3475 64.2492C54.2752 64.7852 54.5941 65.9762 54.0583 66.9041C53.8009 67.35 53.3814 67.67 52.8769 67.8051C52.3727 67.9403 51.8492 67.8728 51.4032 67.6154L47.6249 65.434L40.7809 61.4827C40.2917 60.6819 39.6016 59.9885 38.7333 59.4871C37.7986 58.9473 36.7526 58.6857 35.6992 58.7114C35.5277 56.9003 34.5128 55.1955 32.821 54.2187C31.8067 53.6332 30.664 53.3736 29.5168 53.4561C29.4847 53.2579 29.4426 53.0603 29.3898 52.8637C28.9872 51.3616 28.0274 50.1081 26.6869 49.3343C25.3462 48.5603 23.7812 48.3555 22.2789 48.7583C21.2791 49.0263 20.3895 49.541 19.6781 50.2506C19.2357 49.6898 18.6824 49.2026 18.0273 48.8244C15.2527 47.2223 11.6919 48.1763 10.0896 50.9513L9.32494 52.2757L3.86702 49.1247V28.2953ZM16.8061 54.8262L14.6083 58.6331C14.0715 59.5585 12.8811 59.8764 11.9547 59.3415C11.5086 59.084 11.1887 58.6644 11.0535 58.1602C10.9183 57.6557 10.9856 57.1325 11.2432 56.6864L13.4381 52.8848C13.6956 52.4389 14.1152 52.1189 14.6195 51.9838C15.1239 51.8484 15.6473 51.9157 16.0934 52.1734C17.0203 52.7084 17.3401 53.8985 16.8061 54.8262ZM17.1334 61.993L17.9556 60.5691C17.9558 60.5688 17.9559 60.5684 17.9561 60.5682L20.1559 56.758L22.0979 53.3945C22.3553 52.9486 22.7748 52.6286 23.2791 52.4934C23.7832 52.3581 24.3068 52.4256 24.753 52.6831C25.6811 53.2189 26.0003 54.4101 25.4645 55.3382L24.8828 56.3458C24.8828 56.346 24.8826 56.346 24.8826 56.3461L21.0817 62.9296C21.0811 62.9305 21.0805 62.9315 21.0799 62.9325L20.5003 63.9365C19.9645 64.8646 18.7732 65.184 17.845 64.6479C16.9169 64.1123 16.5977 62.9213 17.1334 61.993ZM24.4301 64.8642L24.4307 64.8631C24.4309 64.8629 24.4309 64.8627 24.4311 64.8625L28.2314 58.28C28.2316 58.2799 28.2318 58.2795 28.232 58.2793C28.232 58.2793 28.232 58.2793 28.2322 58.2791L28.2324 58.2785C28.4899 57.833 28.9093 57.5132 29.4134 57.3783C29.9178 57.2429 30.441 57.3102 30.8873 57.5679C31.8154 58.1037 32.1346 59.2949 31.5988 60.223L30.7956 61.6142L28.6013 65.4151C28.6011 65.4153 28.6009 65.4157 28.6007 65.4159L27.7975 66.807C27.2617 67.7351 26.0707 68.0543 25.1422 67.5184C24.2145 66.9824 23.8951 65.7921 24.4301 64.8642ZM31.9486 67.3509L31.9495 67.3492L34.1445 63.5475C34.402 63.1016 34.8214 62.7817 35.3258 62.6465C35.8299 62.511 36.3533 62.5786 36.7998 62.8362C37.7278 63.372 38.0471 64.5632 37.5113 65.4911L35.3164 69.2927C34.7806 70.221 33.5894 70.5401 32.6611 70.0043C32.2152 69.7467 31.8952 69.3272 31.7599 68.8229C31.6249 68.3192 31.692 67.7966 31.9486 67.3509ZM40.8601 67.4248C41.0728 67.0565 41.2391 66.674 41.3632 66.2844L45.6895 68.7821C45.6898 68.7823 45.6902 68.7827 45.6906 68.7829C45.6908 68.7829 45.6908 68.7829 45.691 68.7831L45.6931 68.7842C46.6191 69.321 46.937 70.5107 46.4018 71.4378C45.8658 72.3661 44.6746 72.6849 43.7465 72.1493L39.5357 69.7183L40.8601 67.4248ZM20.8964 68.3883C21.3864 69.3931 22.17 70.2674 23.2087 70.8672C24.9005 71.8442 26.8845 71.8707 28.5384 71.1135C29.0431 72.041 29.7927 72.8139 30.7274 73.3533C31.6189 73.868 32.6096 74.1308 33.6155 74.1308C34.122 74.1308 34.6325 74.0641 35.1356 73.9293C35.9206 73.7189 36.6368 73.3551 37.2532 72.8655L41.8132 75.4984C42.726 76.0252 43.7235 76.2756 44.7086 76.2756C46.7183 76.2756 48.6758 75.2333 49.7508 73.3715C50.1102 72.7491 50.3409 72.0871 50.4513 71.4165C51.5445 71.8011 52.7296 71.8481 53.8775 71.5405C55.3798 71.1379 56.6331 70.1781 57.4071 68.8376C57.8702 68.0356 58.1194 67.1682 58.1732 66.301C58.7708 66.33 59.3776 66.266 59.9741 66.1063C61.4762 65.7038 62.7297 64.744 63.5037 63.4035C63.8817 62.7488 64.1172 62.0502 64.2202 61.3439C65.6031 61.7134 67.0596 61.549 68.3104 60.9286C66.966 65.4083 64.5934 69.7025 61.2767 73.6035C55.9899 79.8221 48.6667 84.6164 40.6045 87.1483C32.541 84.6156 25.2174 79.8213 19.931 73.6037C18.414 71.8195 17.0975 69.96 15.9845 68.0369C17.5439 68.908 19.3405 68.9834 20.8964 68.3883ZM70.1086 51.9172C69.6915 51.4366 69.1932 51.0242 68.6269 50.6972C67.332 49.9495 58.4098 44.5413 51.8953 40.5923C49.6452 39.2286 47.611 37.9954 46.1369 37.1033C45.3985 36.6564 44.8004 36.2949 44.3857 36.0451C43.4727 35.4952 43.2828 35.3807 42.7387 35.3807C42.522 35.3807 42.3068 35.417 42.1022 35.4884C40.2285 36.1417 37.4989 37.3658 35.7557 38.227C34.837 38.6804 33.5366 38.6012 32.9356 37.5602C32.3888 36.6129 32.7144 35.3973 33.6617 34.8503L44.7799 28.4313C45.9176 27.7745 46.8664 27.7371 48.6841 28.2779L62.9014 32.5075C63.2608 32.6144 63.6435 32.6144 64.0029 32.5079L77.3351 28.5506L77.3395 49.2076L70.1086 51.9172ZM4.96545 21.7156C4.97647 21.7102 4.9873 21.7048 4.99813 21.6994L39.6422 4.1452C39.6668 4.13283 39.6909 4.11987 39.7149 4.10634C39.9933 3.94992 40.2981 3.87199 40.6032 3.87199C40.9158 3.87199 41.2289 3.95398 41.5135 4.11794C41.5432 4.13515 41.5736 4.15139 41.6041 4.16705L76.3718 21.7931C76.9656 22.141 77.3335 22.796 77.3343 23.5097L77.3345 24.5171L73.4555 25.6685C73.3953 25.0101 73.0053 24.4221 72.4087 24.1193L41.4756 8.4374C40.9261 8.15898 40.277 8.15878 39.7273 8.43721L32.0226 12.3412C31.0702 12.824 30.6893 13.9874 31.1719 14.9398C31.6545 15.8923 32.8185 16.273 33.7705 15.7905L40.601 12.3294L69.3284 26.8932L63.4536 28.637L49.787 24.5714C47.7113 23.954 45.4339 23.5884 42.8466 25.0824L40.5601 26.4026L38.2735 25.0824C35.6861 23.5886 33.4088 23.9542 31.3329 24.5714L17.6858 28.6312L11.9978 26.8226L18.245 23.6572C19.1975 23.1744 19.5784 22.011 19.0957 21.0586C18.613 20.106 17.4496 19.7251 16.4971 20.2078L8.79361 24.1112C8.25203 24.3856 7.88138 24.8953 7.77136 25.4788L3.86702 24.2373V23.5089C3.86702 22.7419 4.2982 22.0379 4.96545 21.7156ZM67.1688 78.6131C60.5168 86.437 51.2506 92.2812 41.0788 95.0686C40.7482 95.1591 40.4158 95.1556 40.0906 95.0583C40.0774 95.0543 40.0643 95.0504 40.051 95.0469C29.9093 92.2505 20.6714 86.4142 14.0386 78.6131C7.72051 71.1816 4.23284 62.5641 3.89641 53.6068L7.4678 55.6688C7.06138 56.7804 7.00453 57.9896 7.31834 59.161C7.63563 60.3447 8.29999 61.3727 9.22285 62.1347C10.7325 67.122 13.3399 71.8212 16.9847 76.1084C22.8698 83.0302 31.0607 88.3268 40.0488 91.0227C40.23 91.0771 40.4172 91.1041 40.6043 91.1041C40.7915 91.1041 40.9787 91.0769 41.1598 91.0227C50.1468 88.3274 58.3373 83.0305 64.2228 76.1082C69.6281 69.7506 72.7758 62.4129 73.3683 54.8254L77.3204 53.3446C77.0427 62.3959 73.5487 71.1093 67.1688 78.6131Z" fill="black"/>
<path d="M25.1344 19.9327C26.2023 19.9327 27.068 19.0671 27.068 17.9991C27.068 16.9312 26.2023 16.0656 25.1344 16.0656H25.133C24.0651 16.0656 23.2002 16.9312 23.2002 17.9991C23.2002 19.0671 24.0664 19.9327 25.1344 19.9327Z" fill="black"/>
<defs>
<filter id="filter0_d" x="26.7397" y="25.9582" width="56.5345" height="36.3217" filterUnits="userSpaceOnUse" color-interpolation-filters="sRGB">
<feFlood flood-opacity="0" result="BackgroundImageFix"/>
<feColorMatrix in="SourceAlpha" type="matrix" values="0 0 0 0 0 0 0 0 0 0 0 0 0 0 0 0 0 0 127 0"/>
<feOffset dy="4"/>
<feGaussianBlur stdDeviation="2"/>
<feColorMatrix type="matrix" values="0 0 0 0 0 0 0 0 0 0 0 0 0 0 0 0 0 0 0.25 0"/>
<feBlend mode="normal" in2="BackgroundImageFix" result="effect1_dropShadow"/>
<feBlend mode="normal" in="SourceGraphic" in2="effect1_dropShadow" result="shape"/>
</filter>
</defs>
</svg>
