<svg viewBox="0 0 620 620" fill="none" xmlns="http://www.w3.org/2000/svg">
<path fill-rule="evenodd" clip-rule="evenodd" d="M308.292 148.224C472.05 148.224 605 283.962 605 305.551C605 327.139 472.05 462.877 308.292 462.877C144.533 462.877 11.5823 326.066 11.5823 305.551C11.5823 285.035 144.533 148.224 308.292 148.224Z" fill="#000002"/>
<path fill-rule="evenodd" clip-rule="evenodd" d="M566.342 305.536C566.342 305.536 456.452 437.083 305.733 437.083C155.014 437.083 43.0947 305.536 43.0947 305.536C43.0947 305.536 160.398 173.989 308.318 173.989C456.237 173.989 566.342 305.536 566.342 305.536Z" fill="#BECAF0"/>
<path d="M308.181 437.082C380.832 437.082 439.727 378.187 439.727 305.536C439.727 232.885 380.832 173.989 308.181 173.989C235.53 173.989 176.634 232.885 176.634 305.536C176.634 378.187 235.53 437.082 308.181 437.082Z" fill="white"/>
<path d="M390.957 296.456C390.36 290.959 382.642 289.997 378.665 293.839C371.16 301.088 360.944 305.547 349.685 305.547C326.645 305.547 307.967 286.87 307.967 263.829C307.967 252.652 312.363 242.501 319.52 235.011C323.34 231.014 322.336 223.302 316.836 222.734C313.995 222.441 311.111 222.291 308.192 222.291C262.211 222.291 224.936 259.566 224.936 305.547C224.936 351.527 262.211 388.802 308.192 388.802C354.173 388.802 391.447 351.527 391.447 305.547C391.447 302.475 391.281 299.442 390.957 296.456Z" fill="#000002"/>
<path fill-rule="evenodd" clip-rule="evenodd" d="M308.19 147.901C395.196 147.901 465.834 218.54 465.834 305.545C465.834 392.551 395.196 463.189 308.19 463.189C221.184 463.189 150.546 392.551 150.546 305.545C150.546 218.54 221.184 147.901 308.19 147.901ZM308.19 173.998C380.792 173.998 439.737 232.943 439.737 305.545C439.737 378.148 380.792 437.092 308.19 437.092C235.587 437.092 176.642 378.148 176.642 305.545C176.642 232.943 235.587 173.998 308.19 173.998Z" fill="#000002"/>
<path fill-rule="evenodd" clip-rule="evenodd" d="M319 54.3444C319 51.5221 316.709 49.2318 313.888 49.2318H303.663C300.842 49.2318 298.551 51.5221 298.551 54.3444V127.115C298.551 129.937 300.842 132.228 303.663 132.228H313.888C316.709 132.228 319 129.937 319 127.115V54.3444Z" fill="#000002"/>
<path fill-rule="evenodd" clip-rule="evenodd" d="M319 492.933C319 490.111 316.709 487.821 313.888 487.821H303.663C300.842 487.821 298.551 490.111 298.551 492.933V565.704C298.551 568.526 300.842 570.817 303.663 570.817H313.888C316.709 570.817 319 568.526 319 565.704V492.933Z" fill="#000002"/>
<path fill-rule="evenodd" clip-rule="evenodd" d="M319 54.3444C319 51.5221 316.709 49.2318 313.888 49.2318H303.663C300.842 49.2318 298.551 51.5221 298.551 54.3444V127.115C298.551 129.937 300.842 132.228 303.663 132.228H313.888C316.709 132.228 319 129.937 319 127.115V54.3444Z" fill="#000002"/>
<path fill-rule="evenodd" clip-rule="evenodd" d="M427.838 64.2667C428.688 61.5753 427.192 58.7015 424.502 57.8522L414.752 54.7744C412.061 53.9251 409.187 55.4195 408.337 58.1108L386.431 127.506C385.582 130.198 387.077 133.071 389.768 133.921L399.518 136.998C402.208 137.848 405.083 136.353 405.932 133.662L427.838 64.2667Z" fill="#000002"/>
<path fill-rule="evenodd" clip-rule="evenodd" d="M186.829 551.76C185.98 554.452 187.475 557.325 190.166 558.175L199.916 561.252C202.606 562.102 205.481 560.607 206.33 557.916L228.236 488.521C229.086 485.829 227.59 482.955 224.9 482.106L215.15 479.028C212.46 478.179 209.585 479.673 208.736 482.365L186.829 551.76Z" fill="#000002"/>
<path fill-rule="evenodd" clip-rule="evenodd" d="M186.829 64.2667C185.98 61.5753 187.475 58.7015 190.166 57.8522L199.916 54.7744C202.606 53.9251 205.481 55.4195 206.33 58.1108L228.236 127.506C229.086 130.198 227.59 133.071 224.9 133.921L215.15 136.998C212.46 137.848 209.585 136.353 208.736 133.662L186.829 64.2667Z" fill="#000002"/>
<path fill-rule="evenodd" clip-rule="evenodd" d="M427.838 551.76C428.688 554.452 427.192 557.325 424.502 558.175L414.752 561.252C412.061 562.102 409.187 560.607 408.337 557.916L386.431 488.521C385.582 485.829 387.077 482.956 389.768 482.106L399.518 479.028C402.208 478.179 405.083 479.673 405.932 482.365L427.838 551.76Z" fill="#000002"/>
<path fill-rule="evenodd" clip-rule="evenodd" d="M319 492.933C319 490.111 316.709 487.821 313.888 487.821H303.663C300.842 487.821 298.551 490.111 298.551 492.933V565.704C298.551 568.526 300.842 570.817 303.663 570.817H313.888C316.709 570.817 319 568.526 319 565.704V492.933Z" fill="#000002"/>
</svg>
