<svg viewBox="0 0 512 512" fill="none" xmlns="http://www.w3.org/2000/svg">
<path d="M0 78H514V435H0V78Z" fill="#F0F0F0"/>
<path d="M0 78H514V196.668H0V78Z" fill="#6AA1D8"/>
<path d="M0 316.332H514V435H0V316.332Z" fill="#6AA1D8"/>
<path d="M257 278.439C269.15 278.439 279 268.393 279 256.001C279 243.61 269.15 233.564 257 233.564C244.85 233.564 235 243.61 235 256.001C235 268.393 244.85 278.439 257 278.439Z" fill="#FED953"/>
<path d="M292.382 247.399H287.127C286.499 245.236 285.634 243.148 284.547 241.174L288.26 237.472C289.876 235.86 290.784 233.675 290.784 231.396C290.784 229.117 289.876 226.931 288.26 225.32C286.643 223.708 284.451 222.803 282.165 222.803C279.88 222.803 277.687 223.708 276.071 225.32L272.358 229.022C270.379 227.938 268.287 227.075 266.118 226.449V221.215C266.118 218.936 265.21 216.751 263.594 215.14C261.978 213.528 259.786 212.623 257.5 212.623C255.214 212.623 253.022 213.528 251.406 215.14C249.79 216.751 248.882 218.936 248.882 221.215V226.459C246.713 227.085 244.621 227.948 242.642 229.032L238.929 225.33C237.313 223.718 235.12 222.813 232.835 222.813C230.549 222.813 228.357 223.718 226.74 225.33C225.124 226.941 224.216 229.127 224.216 231.406C224.216 233.684 225.124 235.87 226.74 237.481L230.453 241.184C229.366 243.158 228.501 245.246 227.873 247.409H222.618C220.333 247.409 218.14 248.314 216.524 249.926C214.908 251.537 214 253.723 214 256.001C214 258.28 214.908 260.466 216.524 262.077C218.14 263.688 220.333 264.594 222.618 264.594H227.873C228.501 266.757 229.366 268.845 230.453 270.819L226.74 274.521C225.94 275.319 225.305 276.266 224.872 277.309C224.439 278.352 224.216 279.469 224.216 280.597C224.216 281.726 224.439 282.843 224.872 283.886C225.305 284.928 225.94 285.875 226.74 286.673C227.541 287.471 228.491 288.104 229.536 288.536C230.582 288.968 231.703 289.19 232.835 289.19C233.966 289.19 235.087 288.968 236.133 288.536C237.178 288.104 238.129 287.471 238.929 286.673L242.642 282.971C244.621 284.055 246.713 284.918 248.882 285.544V290.788C248.882 293.066 249.79 295.252 251.406 296.863C253.022 298.475 255.214 299.38 257.5 299.38C259.786 299.38 261.978 298.475 263.594 296.863C265.21 295.252 266.118 293.066 266.118 290.788V285.529C268.287 284.903 270.379 284.04 272.358 282.956L276.071 286.659C277.687 288.27 279.88 289.175 282.165 289.175C284.451 289.175 286.643 288.27 288.26 286.659C289.876 285.047 290.784 282.861 290.784 280.583C290.784 278.304 289.876 276.118 288.26 274.507L284.547 270.805C285.634 268.83 286.499 266.743 287.127 264.579H292.382C294.667 264.579 296.86 263.674 298.476 262.062C300.092 260.451 301 258.265 301 255.987C301 253.708 300.092 251.522 298.476 249.911C296.86 248.3 294.667 247.394 292.382 247.394V247.399ZM243.859 255.992C243.858 253.302 244.657 250.672 246.155 248.434C247.653 246.197 249.784 244.453 252.276 243.423C254.769 242.393 257.512 242.123 260.158 242.647C262.805 243.171 265.236 244.466 267.144 246.368C269.052 248.27 270.352 250.693 270.879 253.332C271.406 255.97 271.136 258.705 270.104 261.19C269.071 263.676 267.323 265.8 265.079 267.295C262.836 268.789 260.198 269.587 257.5 269.587C253.884 269.584 250.416 268.151 247.859 265.602C245.301 263.053 243.862 259.597 243.859 255.992V255.992Z" fill="#FE9933"/>
<defs>
<clipPath id="clip0">
<rect fill="white"/>
</clipPath>
</defs>
</svg>
