<svg viewBox="0 0 512 512" fill="none" xmlns="http://www.w3.org/2000/svg">
<path d="M508 434H4C1.791 434 0 432.119 0 429.799V81.2005C0 78.8808 1.791 77 4 77H508C510.209 77 512 78.8808 512 81.2005V429.799C512 432.119 510.209 434 508 434Z" fill="#4BA543"/>
<path d="M481.095 77V434H508C510.209 434 512 432.119 512 429.799V81.2005C512 78.8808 510.209 77 508 77H481.095Z" fill="#43A047"/>
<path d="M70.1219 252.055L253.712 117.621C255.087 116.614 256.913 116.614 258.288 117.621L441.878 252.055C444.161 253.726 444.161 257.274 441.878 258.945L258.288 393.379C256.913 394.386 255.087 394.386 253.712 393.379L70.1219 258.945C67.8389 257.274 67.8389 253.726 70.1219 252.055V252.055Z" fill="#FECE3F"/>
<path d="M256 333.391C296.965 333.391 330.173 298.518 330.173 255.5C330.173 212.482 296.965 177.609 256 177.609C215.035 177.609 181.827 212.482 181.827 255.5C181.827 298.518 215.035 333.391 256 333.391Z" fill="#2387EB"/>
<path d="M256 177.609C250.7 177.609 245.533 178.204 240.547 179.314C274.093 186.781 299.267 218.048 299.267 255.5C299.267 292.952 274.092 324.219 240.547 331.686C245.533 332.796 250.699 333.391 256 333.391C296.965 333.391 330.173 298.518 330.173 255.5C330.173 212.482 296.965 177.609 256 177.609Z" fill="#207BD6"/>
<path d="M183.12 241.06L326.367 280.126C328.823 272.384 330.173 264.11 330.173 255.5C330.173 252.809 330.043 250.15 329.789 247.528L195.249 210.836C189.31 219.728 185.099 229.978 183.12 241.06Z" fill="#EFEFEF"/>
<path d="M297.54 272.264L326.367 280.126C328.823 272.384 330.173 264.11 330.173 255.5C330.173 252.809 330.043 250.15 329.789 247.528L297.539 238.733C298.668 244.133 299.268 249.742 299.268 255.5C299.268 261.256 298.668 266.864 297.54 272.264V272.264Z" fill="#DCDCDC"/>
</svg>
