<svg viewBox="0 0 512 512" fill="none" xmlns="http://www.w3.org/2000/svg">
<path d="M503.172 435H8.828C3.953 435 0 430.793 0 425.605V87.3952C0 82.207 3.953 78 8.828 78H503.173C508.048 78 512.001 82.207 512.001 87.3952V425.605C512 430.794 508.047 435 503.172 435Z" fill="#F5F5F5"/>
<path d="M211.862 218.922H8.828C3.953 218.922 0 214.715 0 209.527V87.3952C0 82.207 3.953 78 8.828 78H211.862C216.737 78 220.69 82.207 220.69 87.3952V209.527C220.69 214.715 216.737 218.922 211.862 218.922Z" fill="#41479B"/>
<path d="M503.172 435H300.138C295.263 435 291.31 430.793 291.31 425.605V303.474C291.31 298.286 295.263 294.079 300.138 294.079H503.172C508.047 294.079 512 298.286 512 303.474V425.606C512 430.794 508.047 435 503.172 435Z" fill="#41479B"/>
<path d="M503.172 218.922H300.138C295.263 218.922 291.31 214.715 291.31 209.527V87.3952C291.31 82.207 295.263 78 300.138 78H503.172C508.047 78 512 82.207 512 87.3952V209.527C512 214.715 508.047 218.922 503.172 218.922Z" fill="#FF4B55"/>
<path d="M211.862 435H8.828C3.953 435 0 430.793 0 425.605V303.474C0 298.286 3.953 294.079 8.828 294.079H211.862C216.737 294.079 220.69 298.286 220.69 303.474V425.606C220.69 430.794 216.737 435 211.862 435Z" fill="#FF4B55"/>
<path d="M250.932 283.289C250.932 283.289 256.206 285.344 255.518 292.39L257.65 292.347C257.65 292.347 256.305 284.205 255.193 283.229C254.081 282.253 250.932 283.289 250.932 283.289Z" fill="#64B496"/>
<path d="M256.218 282.201C253.981 282.201 250.071 282.198 245.959 281.016C246.876 280.001 248.143 277.956 248.143 274.389C248.143 268.804 244.527 272.367 244.527 272.367C244.527 272.367 242.149 274.497 243.587 280.19C242.185 279.62 240.794 278.886 239.468 277.945C240.293 276.842 241.939 274.273 242.895 270.199C242.895 270.199 236.869 268.932 235.221 273.761C234.211 272.398 233.347 270.865 232.626 269.167C234.175 269.187 236.336 268.1 236.336 261.823C236.336 261.823 232.401 261.83 231.35 265.462C230.936 263.944 230.621 262.317 230.389 260.597C231.96 261.082 236.022 261.43 236.022 252.049C236.022 252.049 231.145 252.058 230.016 256.656C229.954 255.48 229.93 254.264 229.941 253.011C232.309 251.693 235.577 248.791 235.238 242.837C235.238 242.837 232.989 243.379 230.927 245.219C231.333 242.962 231.165 239.658 227.912 236.9C227.912 236.9 224.923 242.53 229.289 247.101C228.909 247.669 228.578 248.316 228.305 249.035C227.324 247.445 225.751 245.967 223.217 245.068C223.217 245.068 222.051 252.609 228.666 255.763C228.823 260.167 229.47 264.058 230.582 267.441C228.687 265.665 227.154 263.219 227.154 263.219C227.154 254.841 220.701 254.63 220.701 254.63C219.496 264.192 226.14 264.578 226.14 264.578L229.778 268.803C221.906 267.407 221.906 274.388 221.906 274.388C227.154 275.785 229.778 272.992 229.778 272.992L232.616 274.545C227.582 274.701 225.842 279.973 225.842 279.973C232.169 281.096 236.795 279.513 238.368 278.849C244.74 283.59 252.594 283.596 256.22 283.596V282.201H256.218Z" fill="#64B496"/>
<path d="M255.772 282.201C258.009 282.201 261.919 282.198 266.031 281.016C265.114 280.001 263.847 277.956 263.847 274.389C263.847 268.804 267.463 272.367 267.463 272.367C267.463 272.367 269.841 274.497 268.403 280.19C269.805 279.62 271.196 278.886 272.522 277.945C271.697 276.842 270.051 274.273 269.095 270.199C269.095 270.199 275.121 268.932 276.769 273.761C277.779 272.398 278.643 270.865 279.364 269.167C277.815 269.187 275.654 268.1 275.654 261.823C275.654 261.823 279.589 261.83 280.642 265.462C281.056 263.944 281.371 262.317 281.603 260.597C280.032 261.082 275.97 261.43 275.97 252.049C275.97 252.049 280.847 252.058 281.976 256.656C282.038 255.48 282.062 254.264 282.051 253.011C279.683 251.693 276.415 248.791 276.754 242.837C276.754 242.837 279.003 243.379 281.065 245.219C280.659 242.962 280.827 239.658 284.08 236.9C284.08 236.9 287.069 242.53 282.703 247.101C283.083 247.669 283.414 248.316 283.687 249.035C284.668 247.445 286.241 245.967 288.775 245.068C288.775 245.068 289.941 252.609 283.326 255.763C283.169 260.167 282.522 264.058 281.41 267.441C283.305 265.665 284.838 263.219 284.838 263.219C284.838 254.841 291.291 254.63 291.291 254.63C292.496 264.192 285.852 264.578 285.852 264.578L282.214 268.803C290.086 267.407 290.086 274.388 290.086 274.388C284.838 275.785 282.214 272.992 282.214 272.992L279.376 274.545C284.41 274.701 286.15 279.973 286.15 279.973C279.823 281.096 275.197 279.513 273.624 278.849C267.252 283.59 259.398 283.596 255.772 283.596V282.201Z" fill="#64B496"/>
<path d="M233.863 221.333C229.249 224.48 225.182 228.487 221.905 233.217C223.313 234.322 224.721 235.428 226.129 236.532C229.021 232.357 232.61 228.822 236.68 226.043L233.863 221.333Z" fill="#41479B"/>
<path d="M256.014 257.635H274.381V268.805C274.381 271.891 272.032 274.391 269.133 274.391H261.261C259.105 274.391 257.209 275.512 256.013 277.221L256.014 257.635Z" fill="#FF6B71"/>
<path d="M259.95 245.068V229.709H279.63L274.382 235.294V250.654H259.95V245.068Z" fill="#5F64B9"/>
<path d="M274.38 250.647H267.82V257.629H274.38V250.647Z" fill="#F5F5F5"/>
<path d="M256.014 257.635H237.647V268.805C237.647 271.891 239.996 274.391 242.895 274.391H250.767C252.923 274.391 254.819 275.512 256.015 277.221L256.014 257.635Z" fill="#FF6B71"/>
<path d="M252.735 274.727C254.044 275.172 255.174 276.039 255.985 277.182H256.046C256.858 276.038 257.987 275.173 259.296 274.727V263.219H252.736L252.735 274.727Z" fill="#F5F5F5"/>
<path d="M252.079 245.068V229.709H232.399L237.647 235.294V250.654H252.079V245.068Z" fill="#5F64B9"/>
<path d="M244.21 250.647H237.65V257.629H244.21V250.647Z" fill="#F5F5F5"/>
<path d="M244.207 236.691V240.88L248.143 243.672V240.88L244.207 236.691Z" fill="#41479B"/>
<path d="M248.143 240.88V245.068L253.391 247.861V246.465L248.143 240.88Z" fill="#F5F5F5"/>
<path d="M267.822 236.691V240.88L263.886 243.672V240.88L267.822 236.691Z" fill="#41479B"/>
<path d="M263.886 240.88V245.068L258.638 247.861V246.465L263.886 240.88Z" fill="#F5F5F5"/>
<path d="M263.932 267.408H248.103C244.505 267.408 241.588 264.282 241.588 260.427V238.832L256.113 249.256L270.446 238.832V260.427C270.446 264.283 267.53 267.408 263.932 267.408Z" fill="#FF4B55"/>
<path d="M246.831 242.276L241.583 238.087V253.446L246.831 256.239V242.276Z" fill="#41479B"/>
<path d="M265.198 242.276L270.446 238.087V253.446L265.198 256.239V242.276Z" fill="#41479B"/>
<path d="M263.884 256.245H248.14V263.227H263.884V256.245Z" fill="#41479B"/>
<path d="M248.143 243.672L256.014 247.861L263.886 243.672V256.239H248.143V243.672Z" fill="#FF4B55"/>
<path d="M261.919 244.992V259.031C261.919 260.186 261.036 261.125 259.952 261.125H252.08C250.995 261.125 250.113 260.185 250.113 259.031V245.049L246.177 242.244V259.031C246.177 262.495 248.825 265.314 252.08 265.314H259.952C263.207 265.314 265.855 262.495 265.855 259.031V242.149L261.919 244.992Z" fill="#F5F5F5"/>
<path d="M263.293 254.744C261.083 254.956 258.596 255.194 256.015 256.149C253.435 255.194 250.947 254.956 248.737 254.744C245.039 254.391 242.845 254.047 241.589 251.673V255.703C243.518 257.038 245.961 257.283 248.502 257.526C250.783 257.745 253.141 257.969 255.551 258.941L256.016 259.127L256.481 258.941C258.89 257.969 261.248 257.746 263.53 257.526C266.073 257.284 268.52 257.042 270.449 255.705V251.663C269.192 254.047 266.996 254.391 263.293 254.744Z" fill="#F5F5F5"/>
<path d="M258.638 241.578H256.671V239.483H255.359V241.578H253.391V242.974H255.359V249.257H256.671V242.974H258.638V241.578Z" fill="#FFE15A"/>
<path d="M243.801 235.243L243.081 236.009L254.61 248.278L255.33 247.512L243.801 235.243Z" fill="#464655"/>
<path d="M241.278 233.321L242.719 236.388L244.16 234.855L241.278 233.321Z" fill="#FFE15A"/>
<path d="M246.45 233.254L245.626 233.893L255.227 247.919L256.05 247.28L246.45 233.254Z" fill="#464655"/>
<path d="M244.227 230.941L245.204 234.209L246.851 232.932L244.227 230.941Z" fill="#FFE15A"/>
<path d="M241.51 237.804L240.927 238.692L254.295 248.626L254.878 247.738L241.51 237.804Z" fill="#464655"/>
<path d="M238.71 236.395L240.633 239.146L241.8 237.369L238.71 236.395Z" fill="#FFE15A"/>
<path d="M256.696 247.503L257.416 248.269L268.945 236L268.225 235.234L256.696 247.503Z" fill="#464655"/>
<path d="M270.745 233.321L269.304 236.388L267.863 234.855L270.745 233.321Z" fill="#FFE15A"/>
<path d="M255.984 247.268L256.808 247.906L266.408 233.88L265.585 233.242L255.984 247.268Z" fill="#464655"/>
<path d="M267.796 230.941L266.819 234.209L265.173 232.932L267.796 230.941Z" fill="#FFE15A"/>
<path d="M257.162 247.753L257.745 248.641L271.113 238.707L270.53 237.819L257.162 247.753Z" fill="#464655"/>
<path d="M273.313 236.395L271.39 239.146L270.223 237.369L273.313 236.395Z" fill="#FFE15A"/>
<path d="M255.349 273.992C255.349 273.992 250.275 268.193 251.26 262.87C252.051 258.589 254.452 253.869 256.331 252.72C256.331 252.72 258.988 252.546 258.322 255.002C257.656 257.458 256.844 258.092 257.082 260.513C257.491 264.704 258.126 269.67 255.349 273.992Z" fill="#F5F5F5"/>
<path d="M256.888 252.751C256.571 252.706 256.33 252.721 256.33 252.721C254.451 253.87 252.05 258.59 251.259 262.871C250.811 265.292 251.62 267.807 252.632 269.834C251.991 261.057 254.399 257.943 256.888 252.751Z" fill="#41479B"/>
<path d="M257.08 260.515C256.843 258.094 257.654 257.46 258.32 255.004C258.787 253.285 257.627 252.855 256.888 252.752C256.888 252.752 255.194 256.894 255.085 259.673C254.989 262.118 255.577 272.065 255.349 273.996C258.126 269.669 257.491 264.704 257.08 260.515Z" fill="#FF4B55"/>
<path d="M253.639 254.822C254.696 253.725 256.182 253.234 257.638 253.5C256.948 251.137 256.258 248.773 255.568 246.408C254.114 246.143 252.627 246.634 251.569 247.73C252.258 250.095 252.949 252.459 253.639 254.822Z" fill="#F5F0F0"/>
<path d="M257.638 253.5C258.695 252.403 260.181 251.913 261.637 252.179C260.947 249.815 260.257 247.451 259.567 245.087C258.113 244.822 256.626 245.312 255.568 246.408C256.257 248.772 256.947 251.136 257.638 253.5Z" fill="#F5F5F5"/>
<path d="M250.022 222.821C242.9 222.647 235.866 224.51 229.652 228.217C228.797 226.593 227.941 224.969 227.085 223.346C234.118 219.149 242.081 217.039 250.143 217.237C250.102 219.099 250.061 220.96 250.022 222.821Z" fill="#5F64B9"/>
<path d="M278.167 221.333C282.781 224.48 286.848 228.487 290.125 233.217C288.717 234.322 287.309 235.428 285.901 236.532C283.009 232.357 279.42 228.822 275.35 226.043L278.167 221.333Z" fill="#41479B"/>
<path d="M262.008 222.821C269.13 222.647 276.164 224.51 282.378 228.217C283.233 226.593 284.089 224.969 284.945 223.346C277.912 219.149 269.949 217.039 261.887 217.237C261.928 219.099 261.969 220.96 262.008 222.821Z" fill="#5F64B9"/>
<path d="M266.51 221.333C259.639 219.332 252.389 219.332 245.519 221.333C245.058 219.537 244.595 217.742 244.134 215.945C251.911 213.682 260.117 213.682 267.895 215.945C267.434 217.741 266.972 219.536 266.51 221.333Z" fill="#41479B"/>
<path d="M238.432 283.912C232.769 285.486 227.233 287.61 221.903 290.282C222.649 291.966 223.395 293.65 224.14 295.334C229.283 292.754 234.629 290.718 240.1 289.223L238.432 283.912Z" fill="#FF6B71"/>
<path d="M273.598 283.912C279.261 285.486 284.797 287.61 290.127 290.282C289.381 291.966 288.635 293.65 287.89 295.334C282.747 292.754 277.401 290.718 271.93 289.223L273.598 283.912Z" fill="#FF6B71"/>
<path d="M277.119 288.231C263.32 284.705 248.935 284.705 235.136 288.231C234.728 286.42 234.319 284.61 233.911 282.801C248.514 279.07 263.741 279.07 278.344 282.801C277.937 284.61 277.528 286.422 277.119 288.231Z" fill="#FF4B55"/>
<path d="M256.014 289.748L252.396 290.712C251.568 290.932 250.766 290.266 250.766 289.358V287.35C250.766 286.442 251.568 285.775 252.396 285.996L256.014 286.959V289.748Z" fill="#FF4B55"/>
<path d="M256.014 286.956L259.632 285.993C260.46 285.773 261.262 286.439 261.262 287.347V289.355C261.262 290.263 260.46 290.93 259.632 290.708L256.014 289.745V286.956Z" fill="#FF4B55"/>
<path d="M256.296 289.749H255.733C255.164 289.749 254.702 289.258 254.702 288.651V288.052C254.702 287.447 255.163 286.955 255.733 286.955H256.296C256.865 286.955 257.327 287.446 257.327 288.052V288.651C257.326 289.258 256.865 289.749 256.296 289.749Z" fill="#FF6B71"/>
</svg>
