<svg viewBox="0 0 512 512" fill="none" xmlns="http://www.w3.org/2000/svg">
<path d="M512 345.75H0V425.605C0 430.793 3.953 435 8.828 435H503.173C508.048 435 512.001 430.793 512.001 425.605L512 345.75Z" fill="#FF4B55"/>
<path d="M512 256.501H0V87.3952C0 82.207 3.953 78 8.828 78H503.173C508.048 78 512.001 82.207 512.001 87.3952L512 256.501Z" fill="#FFE15A"/>
<path d="M512 256.501H0V345.748H512V256.501Z" fill="#41479B"/>
<path d="M246.788 261.772L311.268 202.953V288.079C311.268 302.426 300.339 314.055 286.86 314.055C280.83 314.055 275.013 311.68 270.531 307.387L246.788 284.647V261.772Z" fill="#FFE15A"/>
<path d="M280.801 295.243L262.141 277.37V247.768L295.916 216.958V238.479V288.08C295.916 293.394 291.853 297.718 286.86 297.718C284.619 297.718 282.467 296.839 280.801 295.243Z" fill="#FF4B55"/>
<path d="M271.352 239.366V273.014L286.704 287.767V238.274V225.363L295.916 216.96V238.48V288.081C295.916 293.395 291.853 297.719 286.86 297.719C284.619 297.719 282.467 296.841 280.801 295.244L262.141 277.371V247.769L271.352 239.366Z" fill="#41479B"/>
<path d="M265.212 261.772L200.732 202.953V288.079C200.732 302.426 211.661 314.055 225.14 314.055C231.17 314.055 236.987 311.68 241.469 307.387L265.212 284.647V261.772Z" fill="#FFE15A"/>
<path d="M231.199 295.243L249.859 277.37V247.768L216.084 216.958V238.479V288.08C216.084 293.394 220.147 297.718 225.14 297.718C227.381 297.718 229.533 296.839 231.199 295.243Z" fill="#FF4B55"/>
<path d="M240.648 239.366V273.014L225.296 287.767V238.274V225.363L216.084 216.96V238.48V288.081C216.084 293.395 220.147 297.719 225.14 297.719C227.381 297.719 229.533 296.841 231.199 295.244L249.859 277.371V247.769L240.648 239.366Z" fill="#41479B"/>
<path d="M313.454 203.246H309.04V231.394H313.454V203.246Z" fill="#41479B"/>
<path d="M202.924 203.246H198.51V231.394H202.924V203.246Z" fill="#41479B"/>
<path d="M246.788 189.883C246.788 189.883 252.929 158.839 231.436 162.924C209.943 167.008 209.943 173.543 185.379 186.615C185.379 186.615 213.013 193.15 225.295 189.883C225.295 189.883 234.507 202.953 243.718 206.221H252.93L246.788 189.883Z" fill="#5A4646"/>
<path d="M265.212 189.883C265.212 189.883 259.071 158.839 280.564 162.924C302.057 167.008 302.057 173.543 326.621 186.615C326.621 186.615 298.987 193.15 286.705 189.883C286.705 189.883 277.493 202.953 268.282 206.221H259.07L265.212 189.883Z" fill="#5A4646"/>
<path d="M265.212 206.221H246.789V189.762C246.789 184.414 250.862 180.079 255.887 180.079H256.114C261.139 180.079 265.212 184.414 265.212 189.762V206.221Z" fill="#5A4646"/>
<path d="M256 196.414C259.391 196.414 262.141 193.488 262.141 189.879C262.141 186.269 259.391 183.343 256 183.343C252.608 183.343 249.859 186.269 249.859 189.879C249.859 193.488 252.608 196.414 256 196.414Z" fill="#E6E1CD"/>
<path d="M242.823 185.662L254.369 192.224C255.338 192.776 256.531 192.586 257.306 191.759C258.28 190.723 258.28 189.043 257.306 188.006L249.858 180.079H248.067C245.171 180.079 242.823 182.578 242.823 185.662Z" fill="#FFD0AF"/>
<path d="M246.827 186.615H237.578L241.625 181.572C242.385 180.626 243.496 180.08 244.667 180.08H249.859V183.388C249.859 185.169 248.501 186.615 246.827 186.615Z" fill="#FFAF94"/>
<path d="M282.186 206.23C280.114 203.614 279.672 200.146 280.682 197.14C283.636 196.591 286.773 197.641 288.844 200.259C290.614 202.495 291.127 205.338 290.628 207.999C291.242 209.108 291.992 210.534 292.817 212.217C292.858 211.978 292.849 211.741 292.913 211.501C293.637 208.791 295.656 206.874 298.048 206.225C299.761 208.117 300.531 210.878 299.807 213.587C299.185 215.918 297.579 217.607 295.627 218.462C296.398 220.345 297.161 222.376 297.874 224.518C297.915 224.392 297.918 224.265 297.966 224.14C298.966 221.532 301.172 219.863 303.616 219.498C305.122 221.578 305.602 224.414 304.603 227.022C303.728 229.304 301.913 230.809 299.839 231.408C300.907 235.891 301.614 240.649 301.614 245.438H298.543C298.543 241.264 297.941 237.083 297.032 233.084C295.137 233.735 293.02 233.596 291.187 232.402C288.951 230.944 287.771 228.381 287.826 225.779C289.98 224.544 292.661 224.499 294.897 225.958C294.978 226.01 295.032 226.087 295.11 226.142C294.452 224.13 293.752 222.222 293.033 220.432C291.19 221.359 289.021 221.502 287.031 220.508C284.657 219.32 283.22 216.912 283.005 214.319C285.011 212.844 287.662 212.488 290.028 213.659C289.183 211.93 288.42 210.482 287.822 209.4C285.707 209.141 283.67 208.104 282.186 206.23Z" fill="#8CB400"/>
<path d="M229.814 206.23C231.886 203.614 232.328 200.146 231.318 197.14C228.364 196.591 225.227 197.641 223.156 200.259C221.386 202.495 220.873 205.338 221.372 207.999C220.758 209.108 220.008 210.534 219.183 212.217C219.142 211.978 219.151 211.741 219.087 211.501C218.363 208.791 216.344 206.874 213.952 206.225C212.239 208.117 211.469 210.878 212.193 213.587C212.815 215.918 214.421 217.607 216.373 218.462C215.602 220.345 214.839 222.376 214.126 224.518C214.085 224.392 214.082 224.265 214.034 224.14C213.034 221.532 210.828 219.863 208.384 219.498C206.878 221.578 206.398 224.414 207.398 227.022C208.273 229.304 210.088 230.809 212.162 231.408C211.094 235.891 210.387 240.649 210.387 245.438H213.458C213.458 241.264 214.06 237.083 214.969 233.084C216.864 233.735 218.981 233.596 220.814 232.402C223.051 230.944 224.23 228.381 224.175 225.779C222.021 224.544 219.34 224.499 217.104 225.958C217.023 226.01 216.969 226.087 216.891 226.142C217.549 224.13 218.249 222.222 218.968 220.432C220.811 221.359 222.98 221.502 224.97 220.508C227.344 219.32 228.781 216.912 228.996 214.319C226.99 212.844 224.339 212.488 221.973 213.659C222.818 211.93 223.581 210.482 224.179 209.4C226.293 209.141 228.33 208.104 229.814 206.23Z" fill="#8CB400"/>
<path d="M256 278.111L191.52 219.292V304.418C191.52 318.765 202.449 330.394 215.928 330.394C221.958 330.394 227.775 328.019 232.257 323.727L256 300.986V278.111Z" fill="#FFE15A"/>
<path d="M221.987 311.582L240.647 293.709V264.107L206.872 233.297V254.817V304.418C206.872 309.732 210.935 314.056 215.928 314.056C218.17 314.056 220.321 313.178 221.987 311.582Z" fill="#FF4B55"/>
<path d="M231.436 255.704V289.353L216.084 304.105V254.613V241.701L206.872 233.298V254.818V304.419C206.872 309.733 210.935 314.057 215.928 314.057C218.169 314.057 220.321 313.179 221.987 311.583L240.647 293.71V264.108L231.436 255.704Z" fill="#41479B"/>
<path d="M256 278.111L320.48 219.292V304.418C320.48 318.765 309.551 330.394 296.072 330.394C290.042 330.394 284.225 328.019 279.743 323.727L256 300.986V278.111Z" fill="#FFE15A"/>
<path d="M290.013 311.582L271.353 293.709V264.107L305.128 233.297V254.817V304.418C305.128 309.732 301.065 314.056 296.072 314.056C293.829 314.056 291.679 313.178 290.013 311.582Z" fill="#FF4B55"/>
<path d="M280.564 255.704V289.353L295.916 304.105V254.613V241.701L305.128 233.298V254.818V304.419C305.128 309.733 301.065 314.057 296.072 314.057C293.831 314.057 291.679 313.179 290.013 311.583L271.353 293.71V264.108L280.564 255.704Z" fill="#41479B"/>
<path d="M256 304.253C272.958 304.253 286.705 282.307 286.705 255.234C286.705 228.162 272.958 206.215 256 206.215C239.042 206.215 225.295 228.162 225.295 255.234C225.295 282.307 239.042 304.253 256 304.253Z" fill="#69C3FF"/>
<path d="M228.366 268.308H283.634L286.705 255.238L272.712 257.721C269.905 258.219 267.034 257.368 264.873 255.397L248.989 240.907C247.57 239.612 245.761 238.9 243.892 238.9C241.815 238.9 239.822 239.778 238.354 241.341L228.366 251.971V268.308Z" fill="#009B64"/>
<path d="M253.087 253.042L258.361 249.455L248.987 240.905C247.568 239.61 245.759 238.898 243.89 238.898C241.813 238.898 239.82 239.776 238.352 241.339L228.364 251.969V255.237L243.716 251.969L246.43 253.413C248.558 254.545 251.085 254.403 253.087 253.042Z" fill="#F5F5F5"/>
<path d="M228.366 268.308L231.436 287.914L246.788 304.253H256L268.281 300.986L280.564 287.914L283.634 268.308H228.366Z" fill="#5AA0E6"/>
<path d="M256 307.52C237.376 307.52 222.225 284.066 222.225 255.236C222.225 226.407 237.376 202.952 256 202.952C274.624 202.952 289.775 226.407 289.775 255.236C289.775 284.066 274.624 307.52 256 307.52ZM256 209.49C240.764 209.49 228.366 230.013 228.366 255.238C228.366 280.464 240.763 300.987 256 300.987C271.237 300.987 283.634 280.464 283.634 255.238C283.634 230.013 271.236 209.49 256 209.49Z" fill="#FFC88C"/>
<path d="M234.339 303.959C231.765 300.177 227.933 297.718 223.593 297.718C219.253 297.718 215.421 300.177 212.847 303.959C217.237 305.255 220.829 309.048 222.53 314.047C223.215 316.061 223.594 318.27 223.594 320.593C223.593 312.509 228.182 305.776 234.339 303.959Z" fill="#E1E1E1"/>
<path d="M226.031 314.269C226.031 314.269 225.792 318.626 223.692 320.668L223.604 320.591C221.505 318.549 221.265 314.192 221.265 314.192L226.031 314.269Z" fill="#E1E1E1"/>
<path d="M294.4 315.69H217.6C216.762 315.69 216.084 314.967 216.084 314.076V314.036C216.084 313.144 216.763 312.422 217.6 312.422H294.4C295.238 312.422 295.916 313.145 295.916 314.036V314.076C295.916 314.967 295.238 315.69 294.4 315.69Z" fill="#966446"/>
<path d="M271.428 320.591H240.572C237.222 320.591 234.506 317.701 234.506 314.136V313.975C234.506 310.41 237.222 307.519 240.572 307.519H271.428C274.778 307.519 277.494 310.41 277.494 313.975V314.136C277.493 317.701 274.777 320.591 271.428 320.591Z" fill="#BE915A"/>
<path d="M228.366 312.422H217.62C216.773 312.422 216.085 313.154 216.085 314.056C216.085 314.958 216.772 315.69 217.62 315.69H228.366V312.422Z" fill="#B9B9B9"/>
<path d="M256 320.591V350.448L243.719 346.734L249.859 320.591H256Z" fill="#FF4B55"/>
<path d="M252.929 320.591L246.788 343.466L234.507 340.198L243.719 320.591H252.929Z" fill="#41479B"/>
<path d="M240.648 320.591L231.436 333.663L240.648 336.93L246.788 320.591H240.648Z" fill="#FFE15A"/>
<path d="M256 320.591V350.448L268.281 346.734L262.141 320.591H256Z" fill="#FF4B55"/>
<path d="M259.071 320.591L265.212 343.466L277.493 340.198L268.281 320.591H259.071Z" fill="#41479B"/>
<path d="M271.352 320.591L280.564 333.663L271.352 336.93L265.212 320.591H271.352Z" fill="#FFE15A"/>
<path d="M193.728 247.435L189.314 242.702V219.289H193.728V247.435Z" fill="#41479B"/>
<path d="M322.646 242.702L318.232 247.435V219.289H322.646V242.702Z" fill="#41479B"/>
</svg>
