<svg viewBox="0 0 512 512" fill="none" xmlns="http://www.w3.org/2000/svg">
<path d="M170.667 434.994H8.828C3.953 434.994 0 430.787 0 425.599V87.395C0 82.2069 3.953 78 8.828 78H170.667V434.994Z" fill="#82AFFF"/>
<path d="M341.34 78.005H170.67V435H341.34V78.005Z" fill="#F5F5F5"/>
<path d="M503.172 434.994H341.333V78.001H503.172C508.047 78.001 512 82.2079 512 87.396V425.6C512 430.789 508.047 434.994 503.172 434.994Z" fill="#82AFFF"/>
<path d="M253.773 209.788L248.711 212.483L253.368 214.529L253.773 209.788Z" fill="#FFC855"/>
<path d="M256 309.339C227.865 309.339 204.977 284.979 204.977 255.039C204.977 236.439 213.774 219.337 228.508 209.289L229.818 211.467C215.784 221.037 207.407 237.326 207.407 255.039C207.407 283.555 229.207 306.754 256.001 306.754L256 309.339Z" fill="#73AF00"/>
<path d="M226.798 312.727C228.742 313.148 231.741 312.602 234.821 311.076C237.902 309.548 240.223 307.456 241.17 305.601C239.226 305.179 236.227 305.725 233.147 307.251C230.068 308.781 227.746 310.872 226.798 312.727Z" fill="#73AF00"/>
<path d="M241.172 305.602C241.568 303.533 241.055 300.341 239.621 297.064C238.185 293.785 236.219 291.315 234.476 290.307C234.08 292.376 234.593 295.567 236.027 298.845C237.462 302.121 239.428 304.592 241.172 305.602Z" fill="#73AF00"/>
<path d="M216.633 306.087C218.498 306.809 221.54 306.736 224.797 305.708C228.054 304.679 230.64 302.971 231.833 301.284C229.968 300.563 226.926 300.635 223.669 301.663C220.412 302.692 217.826 304.399 216.633 306.087Z" fill="#73AF00"/>
<path d="M231.834 301.282C232.512 299.297 232.444 296.06 231.478 292.594C230.51 289.126 228.906 286.375 227.321 285.106C226.643 287.091 226.711 290.328 227.677 293.794C228.644 297.261 230.249 300.014 231.834 301.282Z" fill="#73AF00"/>
<path d="M207.231 297.033C208.944 298.098 211.948 298.61 215.327 298.22C218.706 297.831 221.537 296.644 222.995 295.213C221.282 294.148 218.278 293.636 214.899 294.025C211.52 294.415 208.689 295.601 207.231 297.033Z" fill="#73AF00"/>
<path d="M222.995 295.212C223.996 293.389 224.477 290.192 224.111 286.596C223.745 283 222.63 279.987 221.285 278.435C220.284 280.258 219.803 283.455 220.169 287.051C220.535 290.647 221.65 293.661 222.995 295.212Z" fill="#73AF00"/>
<path d="M199.458 284.528C200.966 285.9 203.838 286.969 207.228 287.222C210.618 287.474 213.603 286.841 215.275 285.707C213.767 284.335 210.895 283.266 207.505 283.014C204.115 282.761 201.131 283.395 199.458 284.528Z" fill="#73AF00"/>
<path d="M215.276 285.707C216.565 284.102 217.57 281.046 217.807 277.438C218.044 273.83 217.449 270.654 216.384 268.874C215.095 270.479 214.09 273.536 213.853 277.143C213.615 280.752 214.21 283.927 215.276 285.707Z" fill="#73AF00"/>
<path d="M194.908 270.756C196.112 272.434 198.707 274.123 201.972 275.129C205.237 276.134 208.278 276.183 210.139 275.449C208.935 273.771 206.34 272.082 203.075 271.076C199.81 270.071 196.768 270.02 194.908 270.756Z" fill="#73AF00"/>
<path d="M210.138 275.449C211.715 274.168 213.302 271.406 214.247 267.931C215.193 264.457 215.238 261.22 214.548 259.24C212.971 260.521 211.384 263.283 210.439 266.758C209.494 270.233 209.449 273.469 210.138 275.449Z" fill="#73AF00"/>
<path d="M192.982 254.673C193.74 256.625 195.84 258.966 198.752 260.833C201.664 262.699 204.591 263.579 206.567 263.378C205.809 261.426 203.709 259.085 200.797 257.218C197.886 255.352 194.957 254.474 192.982 254.673Z" fill="#73AF00"/>
<path d="M206.567 263.378C208.401 262.571 210.601 260.336 212.355 257.237C214.108 254.138 214.935 251.023 214.746 248.92C212.912 249.727 210.712 251.962 208.958 255.061C207.206 258.161 206.378 261.276 206.567 263.378Z" fill="#73AF00"/>
<path d="M194.807 239.49C195.163 241.567 196.756 244.326 199.235 246.8C201.714 249.274 204.405 250.787 206.374 251.033C206.018 248.955 204.425 246.197 201.946 243.722C199.467 241.249 196.778 239.735 194.807 239.49Z" fill="#73AF00"/>
<path d="M206.376 251.034C208.328 250.655 210.92 248.959 213.245 246.321C215.57 243.683 216.991 240.819 217.222 238.724C215.27 239.103 212.678 240.798 210.353 243.436C208.028 246.073 206.605 248.935 206.376 251.034Z" fill="#73AF00"/>
<path d="M201.975 223.062C201.567 225.127 202.06 228.322 203.476 231.61C204.892 234.899 206.844 237.382 208.581 238.402C208.989 236.337 208.496 233.142 207.08 229.853C205.664 226.564 203.712 224.08 201.975 223.062Z" fill="#73AF00"/>
<path d="M208.58 238.402C210.521 238.837 213.523 238.312 216.613 236.805C219.703 235.298 222.036 233.221 222.995 231.372C221.054 230.938 218.052 231.463 214.962 232.969C211.872 234.476 209.538 236.554 208.58 238.402Z" fill="#73AF00"/>
<path d="M210.546 210.894C209.631 212.767 209.299 215.986 209.832 219.558C210.365 223.131 211.617 226.082 213.033 227.56C213.948 225.687 214.28 222.468 213.747 218.896C213.214 215.325 211.961 212.373 210.546 210.894Z" fill="#73AF00"/>
<path d="M213.034 227.561C214.794 228.535 217.819 228.888 221.175 228.321C224.532 227.754 227.305 226.421 228.694 224.914C226.934 223.941 223.909 223.587 220.553 224.154C217.196 224.722 214.423 226.054 213.034 227.561Z" fill="#73AF00"/>
<path d="M218.951 202.426C217.787 204.136 217.013 207.266 217.046 210.884C217.079 214.501 217.91 217.615 219.105 219.299C220.269 217.589 221.043 214.459 221.01 210.842C220.977 207.226 220.147 204.11 218.951 202.426Z" fill="#73AF00"/>
<path d="M219.105 219.299C220.712 220.538 223.653 221.362 227.052 221.327C230.451 221.292 233.377 220.407 234.96 219.135C233.353 217.897 230.412 217.073 227.013 217.108C223.615 217.143 220.689 218.029 219.105 219.299Z" fill="#73AF00"/>
<path d="M223.183 214.864C225.16 215.034 228.077 214.111 230.963 212.201C233.85 210.292 235.919 207.919 236.651 205.956C234.674 205.786 231.757 206.709 228.871 208.619C225.985 210.527 223.916 212.9 223.183 214.864Z" fill="#73AF00"/>
<path d="M256 309.339V306.753C282.794 306.753 304.594 283.554 304.594 255.038C304.594 237.325 296.216 221.035 282.183 211.466L283.493 209.288C298.227 219.336 307.024 236.439 307.024 255.038C307.023 284.978 284.135 309.339 256 309.339Z" fill="#73AF00"/>
<path d="M285.202 312.727C283.258 313.148 280.259 312.602 277.179 311.076C274.098 309.548 271.777 307.456 270.83 305.601C272.774 305.179 275.773 305.725 278.853 307.251C281.932 308.781 284.254 310.872 285.202 312.727Z" fill="#73AF00"/>
<path d="M270.828 305.602C270.432 303.533 270.945 300.341 272.379 297.064C273.815 293.785 275.781 291.315 277.524 290.307C277.92 292.376 277.407 295.567 275.973 298.845C274.538 302.121 272.572 304.592 270.828 305.602Z" fill="#73AF00"/>
<path d="M295.367 306.087C293.502 306.809 290.46 306.736 287.203 305.708C283.946 304.679 281.36 302.971 280.167 301.284C282.032 300.563 285.074 300.635 288.331 301.663C291.588 302.692 294.174 304.399 295.367 306.087Z" fill="#73AF00"/>
<path d="M280.165 301.282C279.488 299.297 279.555 296.06 280.521 292.594C281.489 289.126 283.093 286.375 284.678 285.106C285.356 287.091 285.288 290.328 284.322 293.794C283.356 297.261 281.751 300.014 280.165 301.282Z" fill="#73AF00"/>
<path d="M304.769 297.033C303.056 298.098 300.052 298.61 296.673 298.22C293.294 297.831 290.463 296.644 289.005 295.213C290.718 294.148 293.722 293.636 297.101 294.025C300.48 294.415 303.311 295.601 304.769 297.033Z" fill="#73AF00"/>
<path d="M289.005 295.212C288.004 293.389 287.523 290.192 287.889 286.596C288.255 283 289.37 279.987 290.715 278.435C291.716 280.258 292.197 283.455 291.831 287.051C291.465 290.647 290.35 293.661 289.005 295.212Z" fill="#73AF00"/>
<path d="M312.542 284.528C311.034 285.9 308.162 286.969 304.772 287.222C301.382 287.474 298.398 286.841 296.725 285.707C298.233 284.335 301.105 283.266 304.495 283.014C307.885 282.761 310.869 283.395 312.542 284.528Z" fill="#73AF00"/>
<path d="M296.724 285.707C295.435 284.102 294.43 281.046 294.193 277.438C293.956 273.83 294.551 270.654 295.616 268.874C296.905 270.479 297.91 273.536 298.147 277.143C298.385 280.752 297.79 283.927 296.724 285.707Z" fill="#73AF00"/>
<path d="M317.092 270.756C315.888 272.434 313.293 274.123 310.028 275.129C306.764 276.136 303.722 276.183 301.861 275.449C303.065 273.771 305.66 272.082 308.925 271.076C312.19 270.071 315.232 270.02 317.092 270.756Z" fill="#73AF00"/>
<path d="M301.862 275.449C300.285 274.168 298.698 271.406 297.753 267.931C296.807 264.457 296.762 261.22 297.452 259.24C299.029 260.521 300.616 263.283 301.561 266.758C302.506 270.233 302.551 273.469 301.862 275.449Z" fill="#73AF00"/>
<path d="M319.018 254.673C318.26 256.625 316.16 258.966 313.248 260.833C310.336 262.699 307.409 263.579 305.433 263.378C306.191 261.426 308.291 259.085 311.203 257.218C314.114 255.352 317.043 254.474 319.018 254.673Z" fill="#73AF00"/>
<path d="M305.433 263.378C303.599 262.571 301.399 260.336 299.645 257.237C297.892 254.138 297.065 251.023 297.254 248.92C299.088 249.727 301.288 251.962 303.042 255.061C304.796 258.161 305.622 261.276 305.433 263.378Z" fill="#73AF00"/>
<path d="M317.193 239.49C316.837 241.567 315.244 244.326 312.765 246.8C310.286 249.274 307.595 250.787 305.626 251.033C305.982 248.955 307.575 246.197 310.054 243.722C312.533 241.248 315.222 239.735 317.193 239.49Z" fill="#73AF00"/>
<path d="M305.624 251.034C303.672 250.655 301.08 248.959 298.755 246.321C296.43 243.683 295.009 240.819 294.778 238.724C296.73 239.103 299.322 240.798 301.647 243.436C303.972 246.073 305.395 248.935 305.624 251.034Z" fill="#73AF00"/>
<path d="M310.025 223.062C310.433 225.127 309.94 228.322 308.524 231.61C307.108 234.899 305.156 237.382 303.419 238.402C303.011 236.337 303.504 233.142 304.92 229.853C306.336 226.564 308.288 224.08 310.025 223.062Z" fill="#73AF00"/>
<path d="M303.42 238.402C301.479 238.837 298.477 238.312 295.387 236.805C292.297 235.298 289.964 233.221 289.005 231.372C290.946 230.938 293.948 231.463 297.038 232.969C300.128 234.476 302.462 236.554 303.42 238.402Z" fill="#73AF00"/>
<path d="M301.454 210.894C302.369 212.767 302.701 215.986 302.168 219.558C301.635 223.131 300.383 226.082 298.967 227.56C298.052 225.687 297.72 222.468 298.253 218.896C298.786 215.325 300.039 212.373 301.454 210.894Z" fill="#73AF00"/>
<path d="M298.966 227.561C297.206 228.535 294.181 228.888 290.825 228.321C287.468 227.754 284.695 226.421 283.306 224.914C285.066 223.941 288.091 223.587 291.447 224.154C294.804 224.722 297.577 226.054 298.966 227.561Z" fill="#73AF00"/>
<path d="M293.049 202.426C294.213 204.136 294.987 207.266 294.954 210.884C294.921 214.501 294.09 217.615 292.895 219.299C291.731 217.589 290.957 214.459 290.99 210.842C291.023 207.226 291.853 204.11 293.049 202.426Z" fill="#73AF00"/>
<path d="M292.895 219.299C291.288 220.538 288.347 221.362 284.948 221.327C281.549 221.292 278.623 220.407 277.04 219.135C278.647 217.897 281.588 217.073 284.987 217.108C288.386 217.143 291.311 218.029 292.895 219.299Z" fill="#73AF00"/>
<path d="M288.817 214.864C286.84 215.034 283.923 214.111 281.037 212.201C278.15 210.292 276.081 207.919 275.349 205.956C277.326 205.786 280.243 206.709 283.129 208.619C286.015 210.527 288.084 212.9 288.817 214.864Z" fill="#73AF00"/>
<path d="M228.146 297.313L219.302 306.725L214.941 297.441L228.025 283.517L232.386 288.158L231.126 292.18C230.52 294.115 229.5 295.872 228.146 297.313Z" fill="#966446"/>
<path d="M275.997 227.823L228.025 278.876C226.821 280.157 226.821 282.236 228.025 283.517L230.205 285.837L238.928 276.554L273.817 234.782L278.178 230.141L275.997 227.823Z" fill="#B9B9B9"/>
<path d="M239.83 270.954C239.252 271.569 238.926 272.404 238.926 273.274V276.556L273.815 234.784L239.83 270.954Z" fill="#966446"/>
<path d="M278.177 230.143L275.997 227.823L273.816 230.143L275.997 232.465L278.177 234.786L302.164 204.619L278.177 230.143Z" fill="#A0A0A0"/>
<path d="M286.284 297.313L295.128 306.725L299.489 297.441L286.405 283.517L282.044 288.158L283.304 292.18C283.91 294.115 284.93 295.872 286.284 297.313Z" fill="#966446"/>
<path d="M238.433 227.823L286.405 278.876C287.609 280.157 287.609 282.236 286.405 283.517L284.225 285.837L275.502 276.554L240.613 234.782L236.252 230.141L238.433 227.823Z" fill="#B9B9B9"/>
<path d="M274.6 270.954C275.178 271.569 275.504 272.404 275.504 273.274V276.556L240.615 234.784L274.6 270.954Z" fill="#966446"/>
<path d="M236.253 230.143L238.433 227.823L240.614 230.143L238.433 232.465L236.253 234.786L212.266 204.619L236.253 230.143Z" fill="#A0A0A0"/>
<path d="M239.315 295.381L241.482 297.484C249.388 288.259 263.223 272.116 285.155 251.159C285.156 251.16 266.986 263.097 239.315 295.381Z" fill="#B9B9B9"/>
<path d="M233.184 304.849C232.406 304.094 232.351 302.81 233.06 301.982L237.704 296.563C238.414 295.735 239.62 295.677 240.398 296.431C241.176 297.187 241.231 298.47 240.522 299.298L235.878 304.717C235.168 305.546 233.962 305.606 233.184 304.849Z" fill="#FFE15A"/>
<path d="M237.556 293.675L236.298 294.272C235.179 294.865 232.235 296.637 231.728 299.162C231.486 300.358 231.827 301.524 232.7 302.626C232.783 302.399 232.896 302.177 233.061 301.987L233.646 301.304C233.251 300.694 233.041 300.093 233.16 299.491C233.478 297.912 235.458 296.502 236.702 295.802L242.266 301.203L243.65 299.589L237.556 293.675Z" fill="#FFC855"/>
<path d="M275.093 297.935L272.926 300.038C265.02 290.813 251.185 274.67 229.253 253.713C229.252 253.714 247.422 265.649 275.093 297.935Z" fill="#B9B9B9"/>
<path d="M281.224 307.405C282.002 306.649 282.057 305.365 281.348 304.538L276.704 299.118C275.994 298.291 274.788 298.232 274.01 298.987C273.232 299.742 273.177 301.026 273.886 301.854L278.53 307.273C279.24 308.102 280.446 308.16 281.224 307.405Z" fill="#FFE15A"/>
<path d="M276.852 296.227L278.11 296.824C279.229 297.417 282.173 299.189 282.68 301.714C282.922 302.91 282.581 304.076 281.708 305.178C281.625 304.95 281.512 304.73 281.347 304.539L280.762 303.856C281.157 303.246 281.367 302.645 281.248 302.043C280.93 300.464 278.95 299.054 277.706 298.354L272.142 303.755L270.758 302.141L276.852 296.227Z" fill="#FFC855"/>
<path d="M258.161 212.531C258.331 212.082 258.43 211.596 258.43 211.082C258.43 208.939 256.798 207.202 254.785 207.202C252.772 207.202 251.14 208.939 251.14 211.082C251.14 212.358 251.727 213.48 252.622 214.188C251.304 225.453 261.741 226.314 265.718 227.889C271.752 230.277 279.321 235.112 278.845 248.624C278.383 261.759 270.578 274.433 270.578 274.433L277.057 265.059C274.688 275.723 269.156 289.306 256 305.46C256 305.46 264.995 296.096 272.501 284.02C266.978 297.848 260.859 310.631 260.859 310.631C260.859 310.631 271.692 295.656 280.449 269.745C291.065 238.331 268.733 219.458 258.161 212.531Z" fill="#69B469"/>
<path d="M248.719 258.913H239V264.085H248.719V258.913Z" fill="#F4E08F"/>
<path d="M239 269.258C241.684 269.258 243.86 266.943 243.86 264.086C243.86 261.23 241.684 258.914 239 258.914C236.316 258.914 234.14 261.23 234.14 264.086C234.14 266.943 236.316 269.258 239 269.258Z" fill="#ECD077"/>
<path d="M239 235.65C241.684 235.65 243.86 233.335 243.86 230.478C243.86 227.622 241.684 225.306 239 225.306C236.316 225.306 234.14 227.622 234.14 230.478C234.14 233.335 236.316 235.65 239 235.65Z" fill="#ECD077"/>
<path d="M268.148 235.646C270.832 235.646 273.008 233.33 273.008 230.474C273.008 227.617 270.832 225.302 268.148 225.302H238.992C241.676 225.302 243.852 227.617 243.852 230.474C243.852 233.33 241.676 235.646 238.992 235.646C236.308 235.646 234.132 233.33 234.132 230.474C234.132 239.155 240.958 249.65 243.159 258.917C243.159 258.917 243.851 261.233 243.851 264.089C243.851 266.946 241.675 269.262 238.991 269.262H268.147C270.831 269.262 273.007 266.946 273.007 264.089C273.007 255.409 266.181 244.913 263.98 235.646H268.148Z" fill="#FCF0A8"/>
<path d="M243.852 230.476C243.852 233.332 241.676 235.648 238.992 235.648H268.148C270.832 235.648 273.008 233.332 273.008 230.476H243.852Z" fill="#F4E08F"/>
<path d="M243.852 264.089C243.852 266.945 241.676 269.261 238.992 269.261H268.148C270.832 269.261 273.008 266.945 273.008 264.089H243.852Z" fill="#F4E08F"/>
</svg>
