<svg viewBox="0 0 512 512" fill="none" xmlns="http://www.w3.org/2000/svg">
<path d="M512 197.001H0V87.3952C0 82.207 3.953 78 8.828 78H503.173C508.048 78 512.001 82.207 512.001 87.3952L512 197.001Z" fill="#4173CD"/>
<path d="M503.172 435H8.828C3.953 435 0 430.793 0 425.605V316H512V425.605C512 430.794 508.047 435 503.172 435Z" fill="#4173CD"/>
<path d="M512 196.999H0V315.992H512V196.999Z" fill="#F5F5F5"/>
<path d="M257.277 241.152L260.436 251.234L270.421 251.316C271.714 251.326 272.249 253.082 271.21 253.9L263.177 260.213L266.189 270.345C266.578 271.658 265.176 272.742 264.123 271.943L256 265.763L247.876 271.942C246.824 272.741 245.421 271.656 245.81 270.344L248.822 260.212L240.789 253.898C239.75 253.081 240.285 251.325 241.578 251.314L251.563 251.233L254.722 241.151C255.133 239.847 256.867 239.847 257.277 241.152Z" fill="#4173CD"/>
<path d="M167.104 268.208L170.263 278.29L180.248 278.372C181.541 278.382 182.076 280.138 181.037 280.956L173.004 287.269L176.016 297.402C176.406 298.714 175.003 299.798 173.95 298.999L165.826 292.82L157.702 298.999C156.65 299.798 155.247 298.714 155.636 297.402L158.648 287.269L150.615 280.956C149.576 280.138 150.111 278.382 151.404 278.372L161.389 278.29L164.548 268.208C164.96 266.904 166.695 266.904 167.104 268.208Z" fill="#4173CD"/>
<path d="M167.104 214.095L170.263 224.176L180.248 224.258C181.541 224.269 182.076 226.025 181.037 226.842L173.004 233.155L176.016 243.288C176.406 244.6 175.003 245.685 173.95 244.885L165.826 238.706L157.702 244.885C156.65 245.685 155.247 244.6 155.636 243.288L158.648 233.155L150.615 226.842C149.576 226.025 150.111 224.269 151.404 224.258L161.389 224.176L164.548 214.095C164.96 212.791 166.695 212.791 167.104 214.095Z" fill="#4173CD"/>
<path d="M347.449 268.208L350.608 278.29L360.593 278.372C361.886 278.382 362.421 280.138 361.382 280.956L353.349 287.269L356.361 297.402C356.751 298.714 355.348 299.798 354.295 298.999L346.171 292.82L338.047 298.999C336.995 299.798 335.592 298.714 335.981 297.402L338.993 287.269L330.96 280.956C329.919 280.138 330.456 278.382 331.749 278.372L341.734 278.29L344.893 268.208C345.305 266.904 347.04 266.904 347.449 268.208Z" fill="#4173CD"/>
<path d="M347.449 214.095L350.608 224.176L360.593 224.258C361.886 224.269 362.421 226.025 361.382 226.842L353.349 233.155L356.361 243.288C356.751 244.6 355.348 245.685 354.295 244.885L346.171 238.706L338.047 244.885C336.995 245.685 335.592 244.6 335.981 243.288L338.993 233.155L330.96 226.842C329.919 226.025 330.456 224.269 331.749 224.258L341.734 224.176L344.893 214.095C345.305 212.791 347.04 212.791 347.449 214.095Z" fill="#4173CD"/>
</svg>
