<svg viewBox="0 0 512 512" fill="none" xmlns="http://www.w3.org/2000/svg">
<path d="M512 78H0V435H512V78Z" fill="#F0F0F0"/>
<path d="M512 78H0V197H512V78Z" fill="#338AF3"/>
<path d="M512 316H0V435H512V316Z" fill="#338AF3"/>
<path d="M256 213.039C233.051 213.039 214.447 232.496 214.447 256.5C214.447 280.504 233.05 299.961 256 299.961C278.949 299.961 297.553 280.504 297.553 256.5C297.553 232.496 278.949 213.039 256 213.039ZM256 281.335C242.886 281.335 232.255 270.216 232.255 256.5C232.255 242.784 242.886 231.665 256 231.665C269.114 231.665 279.745 242.784 279.745 256.5C279.745 270.216 269.114 281.335 256 281.335Z" fill="#FFDA44"/>
<path d="M276.563 262.709L256 256.5L235.437 262.709L228.582 275.127H283.418L276.563 262.709Z" fill="#0052B4"/>
<path d="M256 225.457L242.291 250.291L256 256.5L269.709 250.291L256 225.457Z" fill="#338AF3"/>
<path d="M235.437 262.709H276.563L269.709 250.291H242.291L235.437 262.709Z" fill="#6DA544"/>
</svg>
