<svg viewBox="0 0 512 512" fill="none" xmlns="http://www.w3.org/2000/svg">
<path d="M512 197.001H0V87.3952C0 82.207 3.953 78 8.828 78H503.173C508.048 78 512.001 82.207 512.001 87.3952L512 197.001Z" fill="#FF4B55"/>
<path d="M503.172 435H8.828C3.953 435 0 430.793 0 425.605V316H512V425.605C512 430.794 508.047 435 503.172 435Z" fill="#41479B"/>
<path d="M512 196.999H0V315.992H512V196.999Z" fill="#F5F5F5"/>
<path d="M256 209.527C231.624 209.527 211.862 230.558 211.862 256.501C211.862 282.444 231.624 303.474 256 303.474C280.376 303.474 300.138 282.444 300.138 256.501C300.138 230.558 280.376 209.527 256 209.527ZM256 291.927C237.617 291.927 222.712 276.067 222.712 256.501C222.712 236.934 237.616 221.074 256 221.074C274.384 221.074 289.288 236.936 289.288 256.501C289.288 276.066 274.383 291.927 256 291.927Z" fill="#FF4B55"/>
<path d="M256 272.794C264.455 272.794 271.31 265.499 271.31 256.501C271.31 247.502 264.455 240.207 256 240.207C247.544 240.207 240.69 247.502 240.69 256.501C240.69 265.499 247.544 272.794 256 272.794Z" fill="#41479B"/>
<path d="M256.998 244.159L259.465 252.034L267.264 252.099C268.274 252.107 268.693 253.479 267.88 254.118L261.606 259.048L263.959 266.962C264.264 267.987 263.168 268.834 262.346 268.209L256 263.383L249.654 268.209C248.832 268.834 247.736 267.986 248.041 266.962L250.394 259.048L244.12 254.118C243.308 253.479 243.726 252.107 244.736 252.099L252.535 252.034L255.002 244.159C255.322 243.139 256.678 243.139 256.998 244.159Z" fill="#FFE15A"/>
<path d="M284.96 256.879C284.96 256.879 285.835 252.573 281.53 257.74C281.53 257.74 281.593 256.27 281.471 255.057C282.418 253.967 283.592 251.581 283.316 246.488C283.316 246.488 282.641 242.142 280.425 248.63C280.425 248.63 279.82 246.716 279.177 245.656C279.711 244.477 280.124 242.33 278.843 238.263C278.843 238.263 277.346 234.783 276.88 240.761C276.88 240.761 275.651 238.805 274.852 238.324C275.006 237.36 274.885 235.704 273.077 233.023C273.077 233.023 271.273 230.874 272.184 235.286C272.184 235.286 270.533 233.863 270.005 234.03C269.731 233.187 268.938 231.762 266.275 229.887C266.275 229.887 263.968 228.543 266.615 232.052C266.615 232.052 264.275 231.064 264.303 231.63C264.331 232.196 265.462 233.24 266.391 233.707C266.391 233.707 262.959 234.085 264.368 234.9C264.368 234.9 267.849 236.178 269.94 234.947C270.108 235.596 270.449 236.322 270.955 236.845C270.955 236.845 266.871 236.001 267.977 237.306C267.977 237.306 271.04 239.701 274.067 239.334C274.053 240.222 274.305 241.368 274.748 242.227C274.748 242.227 269.878 239.457 270.801 241.571C270.801 241.571 273.713 245.717 277.587 246.616C277.428 247.537 277.431 248.652 277.641 249.574C277.641 249.574 273.019 244.929 273.442 247.576C273.442 247.576 275.374 253.027 279.29 255.343C278.971 256.034 278.71 256.808 278.614 257.531C278.614 257.531 275.922 251.4 275.401 254.027C275.401 254.027 275.312 260.151 278.384 263.813C277.73 264.392 277.089 265.202 276.696 265.997C276.696 265.997 276.107 259.261 274.783 261.546C274.783 261.546 272.953 266.65 274.192 271.049C273.373 271.306 272.481 271.782 271.821 272.351C271.821 272.351 273.774 265.912 271.711 267.457C271.711 267.457 268.037 271.687 267.756 276.447C266.782 276.425 265.463 276.799 264.507 277.407C264.507 277.407 267.302 271.331 265.052 272.546C265.052 272.546 261.044 276.031 260.009 280.553C259.061 281.128 257.451 282.106 255.842 283.077C254.906 282.499 253.997 281.937 253.22 281.454L253.246 281.409L244.135 273.281L244.316 275.939L239.741 267.231L239.176 270.194L237.678 260.568L236.349 261.989L236.863 253.009L235.131 254.003L238.277 247.324L236.799 247.767L240.686 243.802L238.631 243.988L243.545 241.614L241.749 241.32L246.546 238.735L244.479 238.629L250.698 236.338L249.559 235.278L254.942 233.588L248.492 233.065L250.329 230.659L245.408 233.338L246.114 229.716L241.809 234.433L242.557 231.13L238.528 235.397L238.788 232.176L234.805 239.356L234.291 236.143L230.981 244.203L230.07 240.691L228.592 250.688L227.359 249.2L228.98 258.842L226.924 257.201L230.693 265.862C230.693 265.862 227.952 264.586 227.609 264.586C227.266 264.586 234.162 272.04 234.162 272.04L230.564 271.63L237.516 276.832L234.933 277.511L240.716 279.903L239.302 281.068L251.274 281.979C251.274 281.979 252.428 283.001 253.998 284.186C253.169 284.684 252.44 285.117 251.989 285.38C251.534 285.644 251 285.67 250.521 285.458C249.384 284.95 247.74 284.235 246.947 283.897C246.947 283.897 247.024 287.519 250.567 287.61C252.022 287.645 254.006 286.659 255.851 285.494C257.74 286.747 259.825 287.853 261.331 287.815C264.797 287.724 264.873 284.103 264.873 284.103C264.097 284.441 262.487 285.156 261.376 285.663C260.907 285.876 260.385 285.849 259.94 285.585C259.449 285.293 258.641 284.802 257.715 284.233C258.661 283.55 259.454 282.931 260.011 282.475C260.883 283.204 263.379 284.485 268.957 282.256C268.957 282.256 272.657 280.279 266.176 279.954C266.176 279.954 267.379 279.015 268.191 278.123C269.254 278.705 271.881 279.395 276.875 276.476C276.875 276.476 280.273 273.957 273.815 274.619C273.815 274.619 274.677 273.725 275.355 272.816C276.469 272.95 279.22 272.632 282.868 267.667C282.868 267.667 285.058 263.928 279.368 267.244C279.368 267.244 280.104 265.377 280.277 264.129C281.539 263.482 283.456 261.724 284.96 256.879Z" fill="#64C86E"/>
</svg>
