<svg viewBox="0 0 512 512" fill="none" xmlns="http://www.w3.org/2000/svg">
<path d="M512 77H0V434H512V77Z" fill="#D80027"/>
<path d="M196.641 77V261.321V434H0V77H196.641Z" fill="#6DA544"/>
<path d="M196.641 322.439C231.987 322.439 260.641 292.469 260.641 255.5C260.641 218.531 231.987 188.561 196.641 188.561C161.295 188.561 132.641 218.531 132.641 255.5C132.641 292.469 161.295 322.439 196.641 322.439Z" fill="#FFDA44"/>
<path d="M160.638 222.031V263.868C160.638 284.663 176.756 301.522 196.638 301.522C216.52 301.522 232.638 284.663 232.638 263.868V222.031H160.638Z" fill="#D80027"/>
<path d="M196.638 276.418C190.021 276.418 184.638 270.788 184.638 263.867V247.133H208.639V263.867C208.638 270.787 203.254 276.418 196.638 276.418Z" fill="#F0F0F0"/>
</svg>
