<svg viewBox="0 0 512 512" fill="none" xmlns="http://www.w3.org/2000/svg">
<path d="M512 85.333H0V442.33H512V85.333Z" fill="#F0F0F0"/>
<path d="M288 85.33H224V230.358H0V297.294H224V442.321H288V297.294H512V230.358H288V85.33Z" fill="#D80027"/>
<path d="M393.785 325.911L512 394.6V325.911H393.785Z" fill="#0052B4"/>
<path d="M311.652 325.911L512 442.322V409.404L368.307 325.911H311.652Z" fill="#0052B4"/>
<path d="M458.634 442.322L311.652 356.911V442.322H458.634Z" fill="#0052B4"/>
<path d="M311.652 325.911L512 442.322V409.404L368.307 325.911H311.652Z" fill="#F0F0F0"/>
<path d="M311.652 325.911L512 442.322V409.404L368.307 325.911H311.652Z" fill="#D80027"/>
<path d="M90.341 325.909L0 378.402V325.909H90.341Z" fill="#0052B4"/>
<path d="M200.348 340.712V442.32H25.491L200.348 340.712Z" fill="#0052B4"/>
<path d="M143.693 325.911L0 409.404V442.322L200.348 325.911H143.693Z" fill="#D80027"/>
<path d="M118.215 201.74L0 133.051V201.74H118.215Z" fill="#0052B4"/>
<path d="M200.348 201.74L0 85.33V118.248L143.693 201.74H200.348Z" fill="#0052B4"/>
<path d="M53.366 85.33L200.348 170.741V85.33H53.366Z" fill="#0052B4"/>
<path d="M200.348 201.74L0 85.33V118.248L143.693 201.74H200.348Z" fill="#F0F0F0"/>
<path d="M200.348 201.74L0 85.33V118.248L143.693 201.74H200.348Z" fill="#D80027"/>
<path d="M421.659 201.742L512 149.25V201.742H421.659Z" fill="#0052B4"/>
<path d="M311.652 186.939V85.3311H486.509L311.652 186.939Z" fill="#0052B4"/>
<path d="M368.307 201.74L512 118.248V85.33L311.652 201.74H368.307Z" fill="#D80027"/>
</svg>
