<svg viewBox="0 0 512 512" fill="none" xmlns="http://www.w3.org/2000/svg">
<path d="M503.172 78H8.828C3.953 78 0 82.2059 0 87.3941V425.605C0 430.793 3.953 435 8.828 435H503.173C508.048 435 512.001 430.793 512.001 425.605V87.3941C512 82.2059 508.047 78 503.172 78Z" fill="#F5F5F5"/>
<path d="M512 117.669H185.38V157.333H512V117.669Z" fill="#4173CD"/>
<path d="M512 157.333H0V196.998H512V157.333Z" fill="#F5F5F5"/>
<path d="M512 196.998H185.38V236.662H512V196.998Z" fill="#4173CD"/>
<path d="M512 236.662H0V276.327H512V236.662Z" fill="#F5F5F5"/>
<path d="M512 276.339H0V316.003H512V276.339Z" fill="#4173CD"/>
<path d="M512 316.002H0V355.667H512V316.002Z" fill="#F5F5F5"/>
<path d="M512 355.667H0V395.331H512V355.667Z" fill="#4173CD"/>
<path d="M63.976 102.867L78.743 175.59L101.85 165.403L63.976 102.867Z" fill="#FFE15A"/>
<path d="M63.976 102.867L90.296 170.497L78.743 175.59L63.976 102.867Z" fill="#FFCD5A"/>
<path d="M121.404 250.422L106.636 177.699L83.529 187.886L121.404 250.422Z" fill="#FFE15A"/>
<path d="M121.404 250.422L95.083 182.792L106.636 177.699L121.404 250.422Z" fill="#FFCD5A"/>
<path d="M162.013 146.086L93.681 161.802L103.252 186.394L162.013 146.086Z" fill="#FFE15A"/>
<path d="M162.013 146.086L98.466 174.097L93.681 161.802L162.013 146.086Z" fill="#FFCD5A"/>
<path d="M23.367 207.203L91.699 191.487L82.127 166.896L23.367 207.203Z" fill="#FFE15A"/>
<path d="M23.367 207.203L86.913 179.192L91.699 191.487L23.367 207.203Z" fill="#FFCD5A"/>
<path d="M121.404 102.867L83.529 165.403L106.636 175.59L121.404 102.867Z" fill="#FFE15A"/>
<path d="M121.404 102.867L95.083 170.497L83.529 165.403L121.404 102.867Z" fill="#FFCD5A"/>
<path d="M63.976 250.422L101.85 187.886L78.743 177.699L63.976 250.422Z" fill="#FFE15A"/>
<path d="M63.976 250.422L90.296 182.792L101.85 187.886L63.976 250.422Z" fill="#FFCD5A"/>
<path d="M162.013 207.203L103.252 166.896L93.681 191.487L162.013 207.203Z" fill="#FFE15A"/>
<path d="M162.013 207.203L98.466 179.192L103.252 166.896L162.013 207.203Z" fill="#FFCD5A"/>
<path d="M23.367 146.086L82.127 186.394L91.699 161.802L23.367 146.086Z" fill="#FFE15A"/>
<path d="M23.367 146.086L86.913 174.097L82.127 186.394L23.367 146.086Z" fill="#FFCD5A"/>
<path d="M92.69 96.7893L80.184 169.989H105.195L92.69 96.7893Z" fill="#FFE15A"/>
<path d="M92.69 96.7893V169.989H80.184L92.69 96.7893Z" fill="#FFCD5A"/>
<path d="M92.69 256.5L105.195 183.3H80.184L92.69 256.5Z" fill="#FFE15A"/>
<path d="M92.69 256.5V183.3H105.195L92.69 256.5Z" fill="#FFCD5A"/>
<path d="M167.724 176.645L98.943 163.336V189.954L167.724 176.645Z" fill="#FFE15A"/>
<path d="M167.724 176.645H98.943V163.336L167.724 176.645Z" fill="#FFCD5A"/>
<path d="M17.655 176.645L86.436 189.954V163.336L17.655 176.645Z" fill="#FFE15A"/>
<path d="M17.655 176.645H86.436V189.954L17.655 176.645Z" fill="#FFCD5A"/>
<path d="M145.747 120.178L88.268 162.528L105.954 181.35L145.747 120.178Z" fill="#FFE15A"/>
<path d="M145.747 120.178L97.111 171.939L88.268 162.528L145.747 120.178Z" fill="#FFCD5A"/>
<path d="M39.633 233.111L97.111 190.761L79.425 171.939L39.633 233.111Z" fill="#FFE15A"/>
<path d="M39.633 233.111L88.268 181.35L97.111 190.761L39.633 233.111Z" fill="#FFCD5A"/>
<path d="M145.747 233.111L105.954 171.939L88.268 190.761L145.747 233.111Z" fill="#FFE15A"/>
<path d="M145.747 233.111L97.111 181.35L105.954 171.939L145.747 233.111Z" fill="#FFCD5A"/>
<path d="M39.633 120.178L79.425 181.35L97.111 162.528L39.633 120.178Z" fill="#FFE15A"/>
<path d="M39.633 120.178L88.268 171.939L79.425 181.35L39.633 120.178Z" fill="#FFCD5A"/>
<path d="M92.69 203.266C106.503 203.266 117.7 191.35 117.7 176.649C117.7 161.949 106.503 150.033 92.69 150.033C78.8774 150.033 67.68 161.949 67.68 176.649C67.68 191.35 78.8774 203.266 92.69 203.266Z" fill="#FFE15A"/>
</svg>
