<svg viewBox="0 0 512 512" fill="none" xmlns="http://www.w3.org/2000/svg">
<path d="M512 197.001H0V87.3952C0 82.207 3.953 78 8.828 78H503.173C508.048 78 512.001 82.207 512.001 87.3952L512 197.001Z" fill="#FFE15A"/>
<path d="M503.172 435H8.828C3.953 435 0 430.793 0 425.605V316H512V425.605C512 430.794 508.047 435 503.172 435Z" fill="#FF4B55"/>
<path d="M512 196.999H0V315.992H512V196.999Z" fill="#41479B"/>
<path d="M178.14 279.379L180.352 286.438L187.343 286.495C188.248 286.503 188.624 287.732 187.896 288.305L182.272 292.724L184.381 299.82C184.654 300.738 183.671 301.498 182.934 300.937L177.246 296.61L171.558 300.937C170.822 301.497 169.839 300.737 170.111 299.82L172.22 292.724L166.596 288.305C165.868 287.733 166.243 286.503 167.149 286.495L174.14 286.438L176.352 279.379C176.639 278.466 177.854 278.466 178.14 279.379Z" fill="#F5F5F5"/>
<path d="M191.723 256.907L190.538 264.241L196.674 267.808C197.468 268.27 197.253 269.543 196.357 269.68L189.437 270.747L188.145 278.059C187.977 279.005 186.775 279.182 186.374 278.318L183.283 271.643L176.348 272.595C175.45 272.719 174.921 271.554 175.57 270.882L180.58 265.69L177.586 258.966C177.199 258.096 178.075 257.201 178.876 257.65L185.063 261.116L190.148 256.008C190.806 255.347 191.876 255.958 191.723 256.907Z" fill="#F5F5F5"/>
<path d="M208.913 237.24L205.631 243.81L210.41 249.241C211.029 249.945 210.451 251.081 209.559 250.913L202.672 249.622L199.295 256.139C198.858 256.982 197.663 256.749 197.537 255.795L196.563 248.426L189.696 247.021C188.807 246.839 188.647 245.558 189.461 245.135L195.745 241.872L194.878 234.489C194.765 233.533 195.861 232.975 196.49 233.668L201.348 239.019L207.678 235.861C208.5 235.452 209.337 236.388 208.913 237.24Z" fill="#F5F5F5"/>
<path d="M229.598 225.037L224.774 230.424L228.002 237.025C228.42 237.879 227.575 238.808 226.758 238.391L220.454 235.172L215.551 240.478C214.917 241.166 213.825 240.596 213.945 239.642L214.873 232.266L208.616 228.943C207.806 228.513 207.976 227.233 208.866 227.059L215.744 225.719L216.779 218.36C216.913 217.408 218.11 217.184 218.54 218.032L221.862 224.58L228.759 223.354C229.654 223.197 230.222 224.34 229.598 225.037Z" fill="#F5F5F5"/>
<path d="M253.374 219.383L247.37 223.197L248.818 230.477C249.006 231.419 247.957 232.074 247.276 231.44L242.013 226.542L235.954 230.256C235.169 230.737 234.261 229.879 234.618 228.993L237.369 222.151L232.177 217.167C231.505 216.522 231.992 215.338 232.893 215.425L239.857 216.094L242.707 209.299C243.076 208.42 244.285 208.546 244.486 209.484L246.04 216.739L252.993 217.524C253.89 217.627 254.152 218.889 253.374 219.383Z" fill="#F5F5F5"/>
<path d="M333.86 279.379L331.648 286.438L324.657 286.495C323.752 286.503 323.376 287.732 324.104 288.305L329.728 292.724L327.619 299.82C327.346 300.738 328.329 301.498 329.066 300.937L334.754 296.61L340.442 300.937C341.178 301.497 342.161 300.737 341.889 299.82L339.78 292.724L345.404 288.305C346.132 287.733 345.757 286.503 344.851 286.495L337.86 286.438L335.648 279.379C335.361 278.466 334.146 278.466 333.86 279.379Z" fill="#F5F5F5"/>
<path d="M320.277 256.907L321.462 264.241L315.326 267.808C314.532 268.27 314.747 269.543 315.643 269.68L322.563 270.747L323.855 278.059C324.023 279.005 325.226 279.182 325.626 278.318L328.717 271.643L335.652 272.595C336.55 272.719 337.079 271.554 336.43 270.882L331.42 265.69L334.414 258.966C334.801 258.096 333.925 257.201 333.124 257.65L326.937 261.116L321.852 256.008C321.194 255.347 320.124 255.958 320.277 256.907Z" fill="#F5F5F5"/>
<path d="M303.087 237.24L306.369 243.81L301.59 249.241C300.971 249.945 301.549 251.081 302.441 250.913L309.328 249.622L312.705 256.139C313.142 256.982 314.337 256.749 314.463 255.795L315.437 248.426L322.304 247.021C323.193 246.839 323.353 245.558 322.539 245.135L316.255 241.872L317.122 234.489C317.235 233.533 316.139 232.975 315.51 233.668L310.652 239.019L304.322 235.861C303.5 235.452 302.663 236.388 303.087 237.24Z" fill="#F5F5F5"/>
<path d="M282.402 225.037L287.226 230.424L283.998 237.025C283.58 237.879 284.425 238.808 285.242 238.391L291.546 235.172L296.449 240.478C297.083 241.166 298.175 240.596 298.054 239.642L297.126 232.266L303.383 228.943C304.193 228.513 304.023 227.233 303.133 227.059L296.255 225.719L295.22 218.36C295.086 217.408 293.889 217.184 293.459 218.032L290.137 224.58L283.24 223.354C282.346 223.197 281.778 224.34 282.402 225.037Z" fill="#F5F5F5"/>
<path d="M258.626 219.383L264.63 223.197L263.182 230.477C262.994 231.419 264.043 232.074 264.724 231.44L269.987 226.542L276.046 230.256C276.831 230.737 277.739 229.879 277.382 228.993L274.631 222.151L279.823 217.167C280.495 216.522 280.008 215.338 279.107 215.425L272.143 216.094L269.293 209.299C268.924 208.42 267.715 208.546 267.514 209.484L265.96 216.739L259.007 217.524C258.11 217.627 257.848 218.889 258.626 219.383Z" fill="#F5F5F5"/>
</svg>
